<svg width="40" height="40" viewBox="0 0 40 40" fill="none" xmlns="http://www.w3.org/2000/svg">
<circle cx="20" cy="20" r="20" fill="#ADEAF1"/>
<path opacity="0.5" d="M16.2088 13.4319C15.9463 13.7919 16.1713 14.9244 15.8507 16.5856C15.5301 18.2469 14.6526 19.6288 14.7745 21.6088C15.0201 25.6119 18.9295 26.3488 18.9295 26.3488V28.0475C18.9295 28.0475 16.3232 28.3494 16.3045 29.4631C16.2857 30.5769 18.1926 31.0119 19.9307 30.9744C21.6688 30.9369 23.4051 30.4456 23.4238 29.4444C23.4445 28.3475 20.7613 27.9913 20.7613 27.9913C20.7613 27.9913 20.7426 27.575 20.7426 27.2169C20.7426 26.8588 20.7801 26.3488 20.7801 26.3488C20.7801 26.3488 24.7326 25.7713 24.8957 21.665C24.9707 19.7769 24.1588 17.9638 24.0463 16.3588C23.9338 14.7538 24.0651 14.0169 24.0651 13.5444C24.0651 13.0719 23.6657 14.2156 19.8782 14.2663C16.4488 14.3131 16.5126 13.0156 16.2088 13.4319Z" fill="white"/>
<path opacity="0.7" d="M16.2088 13.4319C15.9463 13.7919 16.1713 14.9244 15.8507 16.5856C15.5301 18.2469 14.6526 19.6287 14.7745 21.6087C15.0201 25.6119 18.9295 26.3487 18.9295 26.3487V28.0475C18.9295 28.0475 16.3232 28.3494 16.3045 29.4631C16.2857 30.5769 18.1926 31.0119 19.9307 30.9744C21.6688 30.9369 23.4051 30.4456 23.4238 29.4444C23.4445 28.3475 20.7613 27.9912 20.7613 27.9912C20.7613 27.9912 20.7426 27.575 20.7426 27.2169C20.7426 26.8587 20.7801 26.3487 20.7801 26.3487C20.7801 26.3487 24.7326 25.7712 24.8957 21.665C24.9707 19.7769 24.1588 17.9637 24.0463 16.3587C23.9338 14.7537 24.0651 14.0169 24.0651 13.5444C24.0651 13.0719 21.742 12.8075 19.9101 12.77C18.0782 12.7325 16.5126 13.0156 16.2088 13.4319Z" fill="#E0E0E0"/>
<path d="M16.6831 13.5219C17.1481 13.43 18.1924 13.265 19.7524 13.265C21.9237 13.265 23.5999 13.6044 23.5999 13.6044L23.8493 13.13C23.8493 13.13 22.9531 12.5956 19.8181 12.65C18.8449 12.6669 18.1137 12.7175 17.5756 12.7756C16.5856 12.8825 16.5012 13.5594 16.6831 13.5219Z" fill="#C9C9C9"/>
<path d="M16.4619 16.0269C16.4132 15.9538 16.3607 15.7456 16.5669 15.6125C16.7732 15.4794 17.2232 15.1513 19.7469 15.1625C22.2725 15.1738 23.51 15.515 23.51 15.8056C23.51 15.9819 23.255 16.2556 23.255 16.2556L20.135 16.9363L16.4619 16.0269Z" fill="#FFEBC9"/>
<path d="M20.0863 16.34C21.5675 16.3231 23.51 15.8056 23.51 15.8056C23.51 15.8056 23.7069 17.1125 23.8138 17.8081C23.9094 18.4419 24.8357 20.7856 24.2225 22.8537C23.8738 24.0275 22.7319 25.7 20.0282 25.7C16.4882 25.7 15.2019 23.2625 15.1775 21.47C15.155 19.8406 15.8638 18.3294 16.085 17.6225C16.2894 16.97 16.4188 15.8056 16.4188 15.8056C16.4188 15.8056 17.4219 16.37 20.0863 16.34Z" fill="url(#paint0_radial_200_207)"/>
<path d="M16.4413 18.2056C16.2725 18.4868 16.0963 19.0362 15.9481 19.6625C15.8469 20.0881 15.74 20.63 15.7606 21.3762C15.7775 21.9856 15.9294 23.27 17.1275 23.1706C17.5306 23.1368 17.0825 22.3756 17.2175 20.3787C17.3413 18.5337 17.8681 18.1081 17.0525 18.005C16.6513 17.9581 16.5406 18.0406 16.4413 18.2056ZM19.4131 26.4912C19.4131 26.4912 19.4656 28.5781 19.4844 28.6606C19.5425 28.9118 19.6888 29.1893 20.3525 29.1425C21.0163 29.0956 20.6844 28.4637 20.66 28.4168C20.6356 28.37 20.5569 26.8456 20.5569 26.8456L20.4856 26.2925L19.4131 26.4912Z" fill="white"/>
<path d="M18.9406 28.2256C18.8337 28.2031 18.3875 28.9438 18.3875 29.0225C18.3875 29.1013 18.9031 29.6038 19.9456 29.6038C20.9881 29.6038 21.4193 29.1031 21.4175 29.0075C21.4156 28.8613 20.8737 28.085 20.8737 28.085L20.8981 26.4744C20.8981 26.4744 20.78 26.2231 20.6187 26.315C20.4575 26.4069 20.4575 26.525 20.4575 26.6506C20.4575 26.7763 20.4425 27.7138 20.4518 27.9913C20.4612 28.2688 20.66 28.8538 19.955 28.8894C19.1356 28.9325 19.0475 28.2481 18.9406 28.2256Z" fill="#9F9F9F"/>
<path d="M19.2424 26.2062C19.2499 26.3656 19.4637 26.7144 19.9437 26.7237C20.4256 26.7331 20.7237 26.4894 20.7237 26.4894C20.7237 26.4894 22.5537 26.3675 23.8774 24.8506C25.1018 23.4481 25.3212 21.2187 24.7381 19.1844C24.1193 17.0262 24.1137 16.5687 24.0949 15.4156C24.0874 14.9712 24.1118 13.9869 24.1043 13.8725C24.0912 13.64 23.8643 13.5725 23.8549 14.1781C23.8437 14.84 23.8099 15.2337 23.8456 16.0906C23.8774 16.85 24.1606 18.1644 24.4268 19.25C24.8524 20.99 24.8506 23.3487 23.5962 24.5919C22.3062 25.8706 21.1137 26.06 20.4312 26.0956C19.5856 26.1425 19.2312 26.0056 19.2424 26.2062Z" fill="#9F9F9F"/>
<path d="M20.8062 15.7681C20.8062 15.7681 21.6162 14.2869 21.8955 13.7187C22.5068 12.4869 22.8068 11.8194 22.9755 11.6412C23.1443 11.4612 26.5587 10.9344 26.6599 10.9231C26.7612 10.9119 26.6599 11.36 26.6599 11.36C26.6824 11.45 26.5868 11.915 26.5868 11.915L23.3955 12.4494C23.3955 12.4494 22.9605 13.3231 22.7393 13.7656C22.2574 14.7312 21.7305 15.7044 21.7305 15.7044L20.8062 15.7681Z" fill="#FF2A23"/>
<path d="M26.3656 11.375C26.345 11.6056 26.3787 11.9093 26.5606 11.9206C26.7725 11.9337 26.8194 11.5906 26.84 11.3937C26.8587 11.2175 26.8212 10.9231 26.6637 10.9231C26.5062 10.9231 26.39 11.0918 26.3656 11.375ZM23.7856 12.4906C23.7602 12.4866 23.7367 12.4747 23.7185 12.4565C23.7003 12.4383 23.6883 12.4148 23.6844 12.3893L23.5287 11.4425C23.5249 11.411 23.5334 11.3793 23.5524 11.354C23.5714 11.3286 23.5995 11.3116 23.6308 11.3065C23.662 11.3014 23.6941 11.3086 23.7201 11.3267C23.7462 11.3447 23.7643 11.372 23.7706 11.4031L23.9262 12.35C23.9293 12.3691 23.9278 12.3888 23.9219 12.4072C23.9159 12.4257 23.9056 12.4425 23.8919 12.4563C23.8782 12.47 23.8614 12.4803 23.8429 12.4862C23.8244 12.4922 23.8048 12.4937 23.7856 12.4906Z" fill="#DB0D25"/>
<path d="M23.5906 12.5525C23.5437 12.5525 23.4987 12.5263 23.48 12.4794L23.09 11.5963C23.0637 11.5344 23.09 11.4631 23.1518 11.435C23.2137 11.4069 23.285 11.435 23.3131 11.4969L23.7031 12.38C23.7293 12.4419 23.7031 12.5131 23.6412 12.5412C23.6243 12.5506 23.6075 12.5525 23.5906 12.5525Z" fill="#DB0D25"/>
<path d="M23.3601 12.6162C23.3427 12.6164 23.3255 12.6128 23.3096 12.6057C23.2938 12.5986 23.2797 12.5881 23.2682 12.575L22.6926 11.9225C22.682 11.9104 22.6738 11.8964 22.6686 11.8812C22.6635 11.866 22.6613 11.8499 22.6624 11.8339C22.6634 11.8179 22.6676 11.8022 22.6747 11.7878C22.6819 11.7734 22.6918 11.7606 22.7039 11.75C22.7159 11.7394 22.7299 11.7312 22.7451 11.726C22.7603 11.7208 22.7764 11.7187 22.7925 11.7197C22.8085 11.7208 22.8242 11.725 22.8386 11.7321C22.853 11.7392 22.8658 11.7491 22.8764 11.7612L23.452 12.4137C23.4675 12.4314 23.4777 12.4531 23.4811 12.4763C23.4846 12.4996 23.4813 12.5233 23.4716 12.5447C23.4619 12.5661 23.4462 12.5843 23.4264 12.5969C23.4066 12.6096 23.3836 12.6163 23.3601 12.6162Z" fill="#DB0D25"/>
<path d="M18.6105 15.7588L12.9893 8.59253C12.9893 8.59253 13.0361 8.41628 13.1355 8.34128C13.2349 8.2644 13.3868 8.2644 13.3868 8.2644L19.233 15.7738L18.6105 15.7588Z" fill="#F8C976"/>
<path d="M16.4244 13.2388L16.9288 13.7431L18.4907 14.2719L21.7194 14.3188L23.6001 13.6063L23.8457 13.13C23.8457 13.13 24.1944 13.2631 24.1794 13.6475C24.1663 13.9531 24.0576 14.2963 23.2588 14.5775C22.4601 14.8588 21.5451 15.0238 20.0057 15.035C18.4663 15.0463 16.5182 14.8119 16.1319 14.06C15.8788 13.5706 16.4244 13.2388 16.4244 13.2388Z" fill="#C9C9C9"/>
<path d="M16.2857 13.5519C16.2425 13.7319 16.7638 14.2025 18.2263 14.45C19.8425 14.7237 21.7288 14.4556 22.4319 14.33C23.4838 14.1425 23.825 13.8256 23.7744 13.6287C23.7088 13.3775 23.4838 13.5425 23.3132 13.6119C23.1425 13.6794 21.5188 14.1069 19.835 14.0562C18.1513 14.0056 17.5363 13.8425 17.2194 13.6887C16.9025 13.535 16.3757 13.1769 16.2857 13.5519Z" fill="#F9FBFA"/>
<path d="M19.0268 26.2287C19.0437 26.0375 18.5974 25.9831 17.9262 25.6812C17.2549 25.3794 15.6443 24.6237 15.1249 22.7281C14.6224 20.8981 15.1099 19.6737 15.7793 17.7462C16.0643 16.925 16.2649 15.6819 16.2818 15.0275C16.2987 14.3731 16.3324 14.1312 16.1318 14.06C15.9312 13.9887 15.9799 14.2569 15.9799 14.9769C15.9799 15.6969 15.7474 16.7712 15.4774 17.5437C14.8062 19.4562 14.1256 20.9169 14.8024 23.0262C15.2262 24.3462 15.9687 25.1919 17.6581 26C18.4287 26.3694 19.0024 26.5044 19.0268 26.2287Z" fill="#D5D5D5"/>
<path d="M16.8781 29.15C16.6437 29.1912 16.5875 29.525 17.1575 29.8794C17.7275 30.2337 19.0587 30.3837 19.1225 30.1794C19.1862 29.975 18.3181 29.8794 17.6412 29.5456C17.1912 29.3262 17.1237 29.1069 16.8781 29.15ZM20.8231 30.2656C20.9112 30.4156 22.4544 30.3087 22.8425 29.825C23.2287 29.3412 22.94 28.9344 22.4881 28.9662C22.1319 28.9925 22.6269 29.2456 22.1975 29.5681C21.7681 29.8887 20.6712 30.0069 20.8231 30.2656Z" fill="white"/>
<path d="M16.3887 29.1594C16.2706 29.1688 16.0137 29.6525 16.2387 30.1044C16.3737 30.3763 16.64 30.56 17.0112 30.7494C17.5606 31.0288 18.4306 31.2707 19.8162 31.2594C20.8494 31.2519 21.5656 31.1263 22.0887 30.9744C23.1294 30.6744 23.3787 30.0969 23.4312 29.9319C23.5044 29.7013 23.4819 29.3507 23.4219 29.3413C23.3562 29.3319 23.2719 29.6563 23.1406 29.825C22.8894 30.1457 22.4994 30.3782 21.9556 30.5057C21.4062 30.635 20.8775 30.7532 19.7581 30.7269C17.45 30.6725 16.8275 30.0932 16.5912 29.7707C16.3269 29.4107 16.5275 29.1482 16.3887 29.1594Z" fill="#9F9F9F"/>
<path d="M14.8306 10.4675C14.3506 10.8406 13.6981 11.6844 13.8819 13.1919C14.015 14.2906 14.7444 15.1381 14.7987 15.1269C14.8531 15.1156 19.2537 11.3862 19.2425 11.3112C19.2312 11.2362 18.7287 10.2519 17.4725 9.90874C16.2162 9.56561 15.2169 10.1656 14.8306 10.4675Z" fill="#FF8E00"/>
<path d="M17.1218 12.4812L18.5993 11.2606C18.5993 11.2606 18.0725 10.595 17.2681 10.4131L17.1218 12.4812ZM14.3975 12.9406C14.4725 13.7506 14.8625 14.3844 14.8625 14.3844L16.415 13.0775L14.3975 12.9406ZM16.7131 12.3725L16.8987 10.3625C16.4412 10.2912 15.8843 10.3587 15.3893 10.7187L16.7131 12.3725ZM15.0818 11.0525C14.6731 11.4687 14.4687 11.9112 14.4218 12.4587L16.4131 12.7044L15.0818 11.0525Z" fill="#FFA500"/>
<path d="M13.6569 9.45313C13.6569 9.45313 13.8519 9.67626 14.0544 9.48126C14.2232 9.32001 14.0713 9.14376 14.0713 9.14376C14.0713 9.14376 14.7107 8.93188 15.0969 9.37251C15.4832 9.81313 15.4719 10.4563 14.9994 10.79C14.5438 11.1125 13.9194 11.0844 13.5819 10.5219C13.2501 9.95938 13.6569 9.45313 13.6569 9.45313Z" fill="#DC0D27"/>
<defs>
<radialGradient id="paint0_radial_200_207" cx="0" cy="0" r="1" gradientUnits="userSpaceOnUse" gradientTransform="translate(19.928 16.8234) rotate(89.2952) scale(7.51238 12.5439)">
<stop offset="0.262" stop-color="#FFD3A6"/>
<stop offset="0.304" stop-color="#FFCF97"/>
<stop offset="0.384" stop-color="#FFC471"/>
<stop offset="0.494" stop-color="#FFB334"/>
<stop offset="0.578" stop-color="#FFA500"/>
<stop offset="0.667" stop-color="#FF8702"/>
<stop offset="0.817" stop-color="#FF5B05"/>
<stop offset="0.932" stop-color="#FF3F06"/>
<stop offset="1" stop-color="#FF3507"/>
</radialGradient>
</defs>
</svg>
