<svg width="40" height="40" viewBox="0 0 40 40" fill="none" xmlns="http://www.w3.org/2000/svg">
<circle cx="20" cy="20" r="20" fill="#00D159"/>
<path d="M20.0984 12.6312H24.7156V14.6047H20.0984V12.6312Z" fill="#E5E4DF"/>
<path d="M20.3844 14.6047H19.7188V13.9485H20.3844V14.6047ZM20.3844 12.6266H19.8641C19.7844 12.6266 19.7188 12.6922 19.7188 12.7719V13.2828H20.3844V12.6266ZM24.0594 14.6047H24.725V13.9485H24.0594V14.6047ZM24.0594 13.2875H24.725V12.7766C24.725 12.6969 24.6594 12.6313 24.5797 12.6313H24.0594V13.2875Z" fill="#2B3B47"/>
<path d="M31.9858 21.6265V23.5906C31.9858 24.4625 31.278 25.1703 30.4061 25.1703H8.42178C8.22021 25.1703 8.05615 25.0062 8.05615 24.8047V23.5062C8.05615 23.3047 8.22021 23.1406 8.42178 23.1406C8.62334 23.1406 8.59053 22.9765 8.59053 22.775C8.59053 21.9547 8.64678 20.9797 9.40146 20.6422C9.40146 20.6422 11.3702 19.2969 13.4374 19.2406L15.5515 15.514C15.9218 14.8578 16.6202 14.4547 17.3749 14.4547H26.2108C27.078 14.4547 27.8749 14.9515 28.2546 15.7297L30.003 19.3109L31.3765 20.3703C31.7608 20.675 31.9858 21.139 31.9858 21.6265ZM20.3843 13.2875H19.7186V13.9437H20.3843V13.2875ZM24.0593 13.9437H24.7249V13.2875H24.0593V13.9437Z" fill="#FFB636"/>
<path d="M10.5781 24.7672C10.5781 22.9391 12.0594 21.4578 13.8875 21.4578C15.7156 21.4578 17.1969 22.9391 17.1969 24.7672V25.1703H10.5781V24.7672ZM22.7 25.1656H29.3187V24.7625C29.3187 22.9344 27.8375 21.4531 26.0094 21.4531C24.1812 21.4531 22.7 22.9344 22.7 24.7625V25.1656Z" fill="#E08820"/>
<path d="M16.6297 24.8375C16.6297 26.3188 15.4297 27.5141 13.9532 27.5141C12.4766 27.5141 11.2766 26.3141 11.2766 24.8375C11.2766 23.3609 12.4766 22.1609 13.9532 22.1609C15.4297 22.1609 16.6297 23.3609 16.6297 24.8375ZM26.0797 22.1609C24.5985 22.1609 23.4032 23.3609 23.4032 24.8375C23.4032 26.3141 24.6032 27.5141 26.0797 27.5141C27.5563 27.5141 28.7563 26.3141 28.7563 24.8375C28.7563 23.3609 27.5563 22.1609 26.0797 22.1609Z" fill="#2B3B47"/>
<path d="M15.7204 18.875L27.922 18.9078C28.1704 18.9078 28.3345 18.6453 28.2267 18.4203L27.2657 16.4516C27.0173 15.9406 26.4876 15.6125 25.9204 15.6125H17.7689C17.2954 15.6125 16.8548 15.8656 16.6204 16.2781L15.4298 18.3734C15.3032 18.5984 15.4626 18.875 15.7204 18.875Z" fill="white"/>
<path d="M21.0218 14.0797H20.9562C20.914 14.0797 20.8765 14.0469 20.8765 14V13.3953C20.8765 13.3531 20.8437 13.3156 20.7968 13.3156H20.6937C20.6515 13.3156 20.614 13.2828 20.614 13.236V13.2219C20.614 13.1797 20.6468 13.1422 20.6937 13.1422H21.2796C21.3265 13.1422 21.364 13.1844 21.3593 13.2313V13.2453C21.3546 13.2828 21.3218 13.311 21.2796 13.311H21.1765C21.1343 13.311 21.0968 13.3438 21.0968 13.3906V13.9953C21.0968 14.0469 21.064 14.0797 21.0218 14.0797ZM21.6218 13.9391L21.6031 14.0188C21.5937 14.0516 21.5609 14.0797 21.5281 14.0797H21.4625C21.4109 14.0797 21.3734 14.0281 21.3875 13.9766L21.6218 13.2031C21.6312 13.1703 21.664 13.1469 21.6968 13.1469H21.8515C21.8843 13.1469 21.9171 13.1703 21.9265 13.2031L22.1609 13.9766C22.175 14.0281 22.1375 14.0797 22.0859 14.0797H22.0156C21.9781 14.0797 21.95 14.0563 21.9406 14.0188L21.9218 13.9391C21.9125 13.9063 21.8796 13.8781 21.8468 13.8781H21.7015C21.6593 13.8828 21.6265 13.9063 21.6218 13.9391ZM21.7671 13.7188C21.8187 13.7188 21.8562 13.6719 21.8421 13.6203L21.7671 13.3063L21.6921 13.6203C21.6828 13.6719 21.7203 13.7188 21.7671 13.7188ZM22.5828 13.1985L22.6296 13.3016C22.6578 13.3625 22.7421 13.3625 22.7703 13.3016L22.8218 13.1985C22.8359 13.1703 22.864 13.1563 22.8921 13.1563H22.9437C23.0046 13.1563 23.0421 13.2219 23.0093 13.2735L22.85 13.5453C22.8359 13.5688 22.8359 13.5969 22.85 13.6203L23.0374 13.9719C23.0656 14.0235 23.0281 14.0891 22.9671 14.0891H22.9062C22.8734 14.0891 22.85 14.0703 22.8359 14.0422L22.7656 13.8922C22.7375 13.8313 22.6531 13.8313 22.625 13.8922L22.5546 14.0422C22.5406 14.0703 22.5125 14.0891 22.4843 14.0891H22.4281C22.3671 14.0891 22.3296 14.0281 22.3578 13.9766L22.5406 13.6344C22.5546 13.611 22.5546 13.5828 22.5406 13.5594L22.3812 13.2781C22.3531 13.2266 22.3906 13.161 22.4515 13.161H22.5078C22.5406 13.1516 22.5687 13.1703 22.5828 13.1985ZM23.7078 13.3156H23.6703C23.6281 13.3156 23.5906 13.3485 23.5906 13.3953V13.8406C23.5906 13.8828 23.6234 13.9203 23.6703 13.9203H23.7078C23.75 13.9203 23.7874 13.9531 23.7874 14V14.0094C23.7874 14.0516 23.7546 14.0891 23.7078 14.0891H23.2578C23.2156 14.0891 23.1781 14.0563 23.1781 14.0094V14C23.1781 13.9578 23.2109 13.9203 23.2578 13.9203H23.2953C23.3374 13.9203 23.375 13.8875 23.375 13.8406V13.3906C23.375 13.3485 23.3421 13.311 23.2953 13.311H23.2578C23.2156 13.311 23.1781 13.2781 23.1781 13.2313V13.2266C23.1781 13.1844 23.2109 13.1469 23.2578 13.1469H23.7078C23.75 13.1469 23.7874 13.1797 23.7874 13.2266V13.2313C23.7874 13.2781 23.75 13.3156 23.7078 13.3156Z" fill="#2B3B47"/>
<path d="M22.3718 14.8016H23.6796V19.5641H22.3718V14.8016Z" fill="#FFB636"/>
<path d="M15.7108 24.8375C15.7108 25.8078 14.9233 26.5906 13.9577 26.5906C12.9921 26.5906 12.2046 25.8031 12.2046 24.8375C12.2046 23.8672 12.9921 23.0844 13.9577 23.0844C14.9233 23.0844 15.7108 23.8672 15.7108 24.8375ZM26.0796 23.0844C25.1093 23.0844 24.3265 23.8719 24.3265 24.8375C24.3265 25.8078 25.114 26.5906 26.0796 26.5906C27.0499 26.5906 27.8327 25.8031 27.8327 24.8375C27.8327 23.8672 27.0452 23.0844 26.0796 23.0844Z" fill="#9BA5A8"/>
<path d="M14.5672 24.8375C14.5672 25.175 14.2907 25.4516 13.9532 25.4516C13.6157 25.4516 13.3391 25.175 13.3391 24.8375C13.3391 24.5 13.6157 24.2234 13.9532 24.2234C14.2907 24.2234 14.5672 24.5 14.5672 24.8375ZM26.0797 24.2234C25.7422 24.2234 25.4657 24.5 25.4657 24.8375C25.4657 25.175 25.7422 25.4516 26.0797 25.4516C26.4172 25.4516 26.6938 25.175 26.6938 24.8375C26.6938 24.5 26.4172 24.2234 26.0797 24.2234Z" fill="#E5E4DF"/>
<path d="M31.9812 23.0469H31.6203C31.2312 23.0469 30.9875 22.7281 30.9875 22.3391C30.9875 21.95 31.2312 21.6313 31.6203 21.6313H31.9812V23.0469ZM8.57654 22.9485H8.98435C9.37342 22.9485 9.61717 22.6297 9.61717 22.2406C9.61717 21.8516 9.37342 21.5328 8.98435 21.5328H8.70779C8.56248 21.8235 8.57654 22.9485 8.57654 22.9485Z" fill="#FF473E"/>
<path d="M17.6938 18.0735V18.9875C17.6938 19.2547 17.3235 19.4094 17.0563 19.2594C16.8688 19.1563 16.6766 19.025 16.5407 18.8891H15.6173C15.3735 18.8891 15.2282 18.6219 15.3548 18.4203L16.2782 16.8781L16.672 18.0641C16.7845 17.9703 16.9157 17.886 17.047 17.8063C17.3141 17.6469 17.6938 17.8063 17.6938 18.0735ZM28.1517 18.9078C28.3532 18.9078 28.4892 18.6922 28.4001 18.5094L27.1157 15.8891C27.036 15.7297 26.872 15.6266 26.6938 15.6266H26.0798V18.9172L28.1517 18.9078Z" fill="#2B3B47"/>
</svg>
