<svg width="250" height="160" viewBox="0 0 250 160" fill="none" xmlns="http://www.w3.org/2000/svg">
<circle cx="20" cy="20" r="20" fill="#E0FFFF"/>
<path opacity="0.5" d="M16.2088 13.4319C15.9463 13.7919 16.1713 14.9244 15.8506 16.5856C15.53 18.2469 14.6525 19.6287 14.7744 21.6087C15.02 25.6119 18.9294 26.3487 18.9294 26.3487V28.0475C18.9294 28.0475 16.3231 28.3494 16.3044 29.4631C16.2856 30.5769 18.1925 31.0119 19.9306 30.9744C21.6688 30.9369 23.405 30.4456 23.4237 29.4444C23.4444 28.3475 20.7612 27.9913 20.7612 27.9913C20.7612 27.9913 20.7425 27.575 20.7425 27.2169C20.7425 26.8587 20.78 26.3487 20.78 26.3487C20.78 26.3487 24.7325 25.7712 24.8956 21.665C24.9706 19.7769 24.1588 17.9637 24.0463 16.3587C23.9338 14.7537 24.065 14.0169 24.065 13.5444C24.065 13.0719 23.6656 14.2156 19.8781 14.2662C16.4487 14.3131 16.5125 13.0156 16.2088 13.4319Z" fill="white"/>
<path opacity="0.7" d="M16.2088 13.4319C15.9463 13.7919 16.1713 14.9244 15.8506 16.5856C15.53 18.2469 14.6525 19.6287 14.7744 21.6087C15.02 25.6119 18.9294 26.3488 18.9294 26.3488V28.0475C18.9294 28.0475 16.3231 28.3494 16.3044 29.4631C16.2856 30.5769 18.1925 31.0119 19.9306 30.9744C21.6688 30.9369 23.405 30.4456 23.4237 29.4444C23.4444 28.3475 20.7612 27.9913 20.7612 27.9913C20.7612 27.9913 20.7425 27.575 20.7425 27.2169C20.7425 26.8587 20.78 26.3488 20.78 26.3488C20.78 26.3488 24.7325 25.7712 24.8956 21.665C24.9706 19.7769 24.1588 17.9637 24.0463 16.3587C23.9338 14.7537 24.065 14.0169 24.065 13.5444C24.065 13.0719 21.7419 12.8075 19.91 12.77C18.0781 12.7325 16.5125 13.0156 16.2088 13.4319Z" fill="#E0E0E0"/>
<path d="M16.6831 13.5219C17.1481 13.43 18.1925 13.265 19.7525 13.265C21.9238 13.265 23.6 13.6044 23.6 13.6044L23.8494 13.13C23.8494 13.13 22.9531 12.5956 19.8181 12.65C18.845 12.6669 18.1138 12.7175 17.5756 12.7756C16.5856 12.8825 16.5013 13.5594 16.6831 13.5219Z" fill="#C9C9C9"/>
<path d="M16.4619 16.0269C16.4131 15.9537 16.3606 15.7456 16.5669 15.6125C16.7731 15.4794 17.2231 15.1512 19.7469 15.1625C22.2725 15.1737 23.51 15.515 23.51 15.8056C23.51 15.9819 23.255 16.2556 23.255 16.2556L20.135 16.9362L16.4619 16.0269Z" fill="#FFEBC9"/>
<path d="M20.0862 16.34C21.5675 16.3231 23.51 15.8056 23.51 15.8056C23.51 15.8056 23.7069 17.1125 23.8137 17.8081C23.9094 18.4419 24.8356 20.7856 24.2225 22.8538C23.8737 24.0275 22.7319 25.7 20.0281 25.7C16.4881 25.7 15.2019 23.2625 15.1775 21.47C15.155 19.8406 15.8637 18.3294 16.085 17.6225C16.2894 16.97 16.4187 15.8056 16.4187 15.8056C16.4187 15.8056 17.4219 16.37 20.0862 16.34Z" fill="url(#paint0_radial_53_357)"/>
<path d="M16.4413 18.2056C16.2725 18.4869 16.0963 19.0362 15.9481 19.6625C15.8469 20.0881 15.74 20.63 15.7606 21.3762C15.7775 21.9856 15.9294 23.27 17.1275 23.1706C17.5306 23.1369 17.0825 22.3756 17.2175 20.3787C17.3413 18.5337 17.8681 18.1081 17.0525 18.005C16.6513 17.9581 16.5406 18.0406 16.4413 18.2056ZM19.4131 26.4912C19.4131 26.4912 19.4656 28.5781 19.4844 28.6606C19.5425 28.9119 19.6888 29.1894 20.3525 29.1425C21.0163 29.0956 20.6844 28.4637 20.66 28.4169C20.6356 28.37 20.5569 26.8456 20.5569 26.8456L20.4856 26.2925L19.4131 26.4912Z" fill="white"/>
<path d="M18.9406 28.2256C18.8338 28.2031 18.3875 28.9438 18.3875 29.0225C18.3875 29.1013 18.9031 29.6038 19.9456 29.6038C20.9881 29.6038 21.4194 29.1031 21.4175 29.0075C21.4156 28.8613 20.8738 28.085 20.8738 28.085L20.8981 26.4744C20.8981 26.4744 20.78 26.2231 20.6188 26.315C20.4575 26.4069 20.4575 26.525 20.4575 26.6506C20.4575 26.7763 20.4425 27.7138 20.4519 27.9913C20.4613 28.2688 20.66 28.8538 19.955 28.8894C19.1356 28.9325 19.0475 28.2481 18.9406 28.2256Z" fill="#9F9F9F"/>
<path d="M19.2425 26.2062C19.25 26.3656 19.4638 26.7144 19.9438 26.7238C20.4256 26.7331 20.7238 26.4894 20.7238 26.4894C20.7238 26.4894 22.5538 26.3675 23.8775 24.8506C25.1019 23.4481 25.3213 21.2187 24.7381 19.1844C24.1194 17.0262 24.1138 16.5687 24.095 15.4156C24.0875 14.9712 24.1119 13.9869 24.1044 13.8725C24.0913 13.64 23.8644 13.5725 23.855 14.1781C23.8438 14.84 23.81 15.2337 23.8456 16.0906C23.8775 16.85 24.1606 18.1644 24.4269 19.25C24.8525 20.99 24.8506 23.3487 23.5963 24.5919C22.3063 25.8706 21.1138 26.06 20.4313 26.0956C19.5856 26.1425 19.2313 26.0056 19.2425 26.2062Z" fill="#9F9F9F"/>
<path d="M20.8062 15.7681C20.8062 15.7681 21.6162 14.2869 21.8956 13.7188C22.5069 12.4869 22.8069 11.8194 22.9756 11.6413C23.1444 11.4613 26.5587 10.9344 26.66 10.9231C26.7612 10.9119 26.66 11.36 26.66 11.36C26.6825 11.45 26.5869 11.915 26.5869 11.915L23.3956 12.4494C23.3956 12.4494 22.9606 13.3231 22.7394 13.7656C22.2575 14.7313 21.7306 15.7044 21.7306 15.7044L20.8062 15.7681Z" fill="#FF2A23"/>
<path d="M26.3656 11.375C26.345 11.6056 26.3787 11.9094 26.5606 11.9206C26.7725 11.9338 26.8194 11.5906 26.84 11.3938C26.8587 11.2175 26.8212 10.9231 26.6637 10.9231C26.5062 10.9231 26.39 11.0919 26.3656 11.375ZM23.7856 12.4906C23.7602 12.4867 23.7367 12.4747 23.7185 12.4565C23.7003 12.4383 23.6883 12.4148 23.6844 12.3894L23.5287 11.4425C23.5249 11.4111 23.5334 11.3793 23.5524 11.354C23.5714 11.3286 23.5995 11.3116 23.6308 11.3066C23.662 11.3015 23.6941 11.3087 23.7201 11.3267C23.7462 11.3447 23.7643 11.3721 23.7706 11.4031L23.9262 12.35C23.9293 12.3692 23.9278 12.3888 23.9219 12.4073C23.9159 12.4258 23.9056 12.4426 23.8919 12.4563C23.8782 12.47 23.8614 12.4803 23.8429 12.4863C23.8244 12.4922 23.8048 12.4937 23.7856 12.4906Z" fill="#DB0D25"/>
<path d="M23.5906 12.5525C23.5437 12.5525 23.4987 12.5263 23.48 12.4794L23.09 11.5963C23.0637 11.5344 23.09 11.4631 23.1519 11.435C23.2137 11.4069 23.285 11.435 23.3131 11.4969L23.7031 12.38C23.7294 12.4419 23.7031 12.5131 23.6412 12.5412C23.6244 12.5506 23.6075 12.5525 23.5906 12.5525Z" fill="#DB0D25"/>
<path d="M23.36 12.6162C23.3426 12.6164 23.3254 12.6129 23.3095 12.6057C23.2937 12.5986 23.2795 12.5881 23.2681 12.575L22.6925 11.9225C22.6819 11.9105 22.6737 11.8964 22.6685 11.8812C22.6633 11.866 22.6612 11.8499 22.6622 11.8339C22.6633 11.8179 22.6675 11.8022 22.6746 11.7878C22.6817 11.7734 22.6916 11.7606 22.7037 11.75C22.7158 11.7394 22.7298 11.7312 22.745 11.726C22.7602 11.7208 22.7763 11.7187 22.7923 11.7197C22.8084 11.7208 22.824 11.725 22.8384 11.7321C22.8528 11.7392 22.8657 11.7491 22.8762 11.7612L23.4519 12.4137C23.4674 12.4314 23.4775 12.4531 23.481 12.4763C23.4845 12.4996 23.4812 12.5233 23.4715 12.5447C23.4618 12.5661 23.4461 12.5843 23.4263 12.597C23.4065 12.6096 23.3835 12.6163 23.36 12.6162Z" fill="#DB0D25"/>
<path d="M18.6106 15.7587L12.9894 8.5925C12.9894 8.5925 13.0363 8.41625 13.1356 8.34125C13.235 8.26437 13.3869 8.26437 13.3869 8.26437L19.2331 15.7737L18.6106 15.7587Z" fill="#F8C976"/>
<path d="M16.4244 13.2387L16.9288 13.7431L18.4906 14.2719L21.7194 14.3187L23.6 13.6062L23.8456 13.13C23.8456 13.13 24.1944 13.2631 24.1794 13.6475C24.1663 13.9531 24.0575 14.2962 23.2588 14.5775C22.46 14.8587 21.545 15.0237 20.0056 15.035C18.4663 15.0462 16.5181 14.8119 16.1319 14.06C15.8788 13.5706 16.4244 13.2387 16.4244 13.2387Z" fill="#C9C9C9"/>
<path d="M16.2856 13.5519C16.2425 13.7319 16.7637 14.2025 18.2262 14.45C19.8425 14.7238 21.7288 14.4556 22.4319 14.33C23.4838 14.1425 23.825 13.8256 23.7744 13.6288C23.7088 13.3775 23.4838 13.5425 23.3131 13.6119C23.1425 13.6794 21.5188 14.1069 19.835 14.0563C18.1512 14.0056 17.5362 13.8425 17.2194 13.6888C16.9025 13.535 16.3756 13.1769 16.2856 13.5519Z" fill="#F9FBFA"/>
<path d="M19.0269 26.2287C19.0438 26.0375 18.5975 25.9831 17.9263 25.6812C17.255 25.3794 15.6444 24.6237 15.125 22.7281C14.6225 20.8981 15.11 19.6737 15.7794 17.7462C16.0644 16.925 16.265 15.6819 16.2819 15.0275C16.2988 14.3731 16.3325 14.1312 16.1319 14.06C15.9313 13.9887 15.98 14.2569 15.98 14.9769C15.98 15.6969 15.7475 16.7712 15.4775 17.5437C14.8063 19.4562 14.1256 20.9169 14.8025 23.0262C15.2263 24.3462 15.9688 25.1919 17.6581 26C18.4288 26.3694 19.0025 26.5044 19.0269 26.2287Z" fill="#D5D5D5"/>
<path d="M16.8781 29.15C16.6437 29.1912 16.5875 29.525 17.1575 29.8794C17.7275 30.2337 19.0587 30.3837 19.1225 30.1794C19.1862 29.975 18.3181 29.8794 17.6412 29.5456C17.1912 29.3262 17.1237 29.1069 16.8781 29.15ZM20.8231 30.2656C20.9112 30.4156 22.4544 30.3087 22.8425 29.825C23.2287 29.3412 22.94 28.9344 22.4881 28.9662C22.1319 28.9925 22.6269 29.2456 22.1975 29.5681C21.7681 29.8887 20.6712 30.0069 20.8231 30.2656Z" fill="white"/>
<path d="M16.3887 29.1594C16.2706 29.1688 16.0137 29.6525 16.2387 30.1044C16.3737 30.3763 16.64 30.56 17.0112 30.7494C17.5606 31.0288 18.4306 31.2706 19.8162 31.2594C20.8494 31.2519 21.5656 31.1263 22.0887 30.9744C23.1294 30.6744 23.3787 30.0969 23.4312 29.9319C23.5044 29.7013 23.4819 29.3506 23.4219 29.3413C23.3562 29.3319 23.2719 29.6563 23.1406 29.825C22.8894 30.1456 22.4994 30.3781 21.9556 30.5056C21.4062 30.635 20.8775 30.7531 19.7581 30.7269C17.45 30.6725 16.8275 30.0931 16.5912 29.7706C16.3269 29.4106 16.5275 29.1481 16.3887 29.1594Z" fill="#9F9F9F"/>
<path d="M14.8306 10.4675C14.3506 10.8406 13.6981 11.6844 13.8819 13.1919C14.015 14.2906 14.7444 15.1381 14.7987 15.1269C14.8531 15.1156 19.2537 11.3862 19.2425 11.3112C19.2312 11.2362 18.7287 10.2519 17.4725 9.90875C16.2162 9.56562 15.2169 10.1656 14.8306 10.4675Z" fill="#FF8E00"/>
<path d="M17.1219 12.4813L18.5994 11.2606C18.5994 11.2606 18.0725 10.595 17.2681 10.4131L17.1219 12.4813ZM14.3975 12.9406C14.4725 13.7506 14.8625 14.3844 14.8625 14.3844L16.415 13.0775L14.3975 12.9406ZM16.7131 12.3725L16.8987 10.3625C16.4412 10.2913 15.8844 10.3588 15.3894 10.7188L16.7131 12.3725ZM15.0819 11.0525C14.6731 11.4688 14.4687 11.9113 14.4219 12.4588L16.4131 12.7044L15.0819 11.0525Z" fill="#FFA500"/>
<path d="M13.6569 9.45312C13.6569 9.45312 13.8519 9.67625 14.0544 9.48125C14.2231 9.32 14.0713 9.14375 14.0713 9.14375C14.0713 9.14375 14.7106 8.93187 15.0969 9.3725C15.4831 9.81312 15.4719 10.4562 14.9994 10.79C14.5438 11.1125 13.9194 11.0844 13.5819 10.5219C13.25 9.95937 13.6569 9.45312 13.6569 9.45312Z" fill="#DC0D27"/>
<path d="M53.1172 9.625V21H51.1562V9.625H53.1172ZM57.7578 14.6016V16.1562H52.6172V14.6016H57.7578ZM58.4062 9.625V11.1875H52.6172V9.625H58.4062ZM59.25 16.8672V16.6875C59.25 16.0781 59.3385 15.513 59.5156 14.9922C59.6927 14.4661 59.9479 14.0104 60.2812 13.625C60.6198 13.2344 61.0312 12.9323 61.5156 12.7188C62.0052 12.5 62.5573 12.3906 63.1719 12.3906C63.7917 12.3906 64.3438 12.5 64.8281 12.7188C65.3177 12.9323 65.7318 13.2344 66.0703 13.625C66.4089 14.0104 66.6667 14.4661 66.8438 14.9922C67.0208 15.513 67.1094 16.0781 67.1094 16.6875V16.8672C67.1094 17.4766 67.0208 18.0417 66.8438 18.5625C66.6667 19.0833 66.4089 19.5391 66.0703 19.9297C65.7318 20.3151 65.3203 20.6172 64.8359 20.8359C64.3516 21.0495 63.8021 21.1562 63.1875 21.1562C62.5677 21.1562 62.013 21.0495 61.5234 20.8359C61.0391 20.6172 60.6276 20.3151 60.2891 19.9297C59.9505 19.5391 59.6927 19.0833 59.5156 18.5625C59.3385 18.0417 59.25 17.4766 59.25 16.8672ZM61.1328 16.6875V16.8672C61.1328 17.2474 61.1719 17.6068 61.25 17.9453C61.3281 18.2839 61.4505 18.5807 61.6172 18.8359C61.7839 19.0911 61.9974 19.2917 62.2578 19.4375C62.5182 19.5833 62.8281 19.6562 63.1875 19.6562C63.5365 19.6562 63.8385 19.5833 64.0938 19.4375C64.3542 19.2917 64.5677 19.0911 64.7344 18.8359C64.901 18.5807 65.0234 18.2839 65.1016 17.9453C65.1849 17.6068 65.2266 17.2474 65.2266 16.8672V16.6875C65.2266 16.3125 65.1849 15.9583 65.1016 15.625C65.0234 15.2865 64.8984 14.987 64.7266 14.7266C64.5599 14.4661 64.3464 14.263 64.0859 14.1172C63.8307 13.9661 63.526 13.8906 63.1719 13.8906C62.8177 13.8906 62.5104 13.9661 62.25 14.1172C61.9948 14.263 61.7839 14.4661 61.6172 14.7266C61.4505 14.987 61.3281 15.2865 61.25 15.625C61.1719 15.9583 61.1328 16.3125 61.1328 16.6875ZM68.3281 16.8672V16.6875C68.3281 16.0781 68.4167 15.513 68.5938 14.9922C68.7708 14.4661 69.026 14.0104 69.3594 13.625C69.6979 13.2344 70.1094 12.9323 70.5938 12.7188C71.0833 12.5 71.6354 12.3906 72.25 12.3906C72.8698 12.3906 73.4219 12.5 73.9062 12.7188C74.3958 12.9323 74.8099 13.2344 75.1484 13.625C75.487 14.0104 75.7448 14.4661 75.9219 14.9922C76.099 15.513 76.1875 16.0781 76.1875 16.6875V16.8672C76.1875 17.4766 76.099 18.0417 75.9219 18.5625C75.7448 19.0833 75.487 19.5391 75.1484 19.9297C74.8099 20.3151 74.3984 20.6172 73.9141 20.8359C73.4297 21.0495 72.8802 21.1562 72.2656 21.1562C71.6458 21.1562 71.0911 21.0495 70.6016 20.8359C70.1172 20.6172 69.7057 20.3151 69.3672 19.9297C69.0286 19.5391 68.7708 19.0833 68.5938 18.5625C68.4167 18.0417 68.3281 17.4766 68.3281 16.8672ZM70.2109 16.6875V16.8672C70.2109 17.2474 70.25 17.6068 70.3281 17.9453C70.4062 18.2839 70.5286 18.5807 70.6953 18.8359C70.862 19.0911 71.0755 19.2917 71.3359 19.4375C71.5964 19.5833 71.9062 19.6562 72.2656 19.6562C72.6146 19.6562 72.9167 19.5833 73.1719 19.4375C73.4323 19.2917 73.6458 19.0911 73.8125 18.8359C73.9792 18.5807 74.1016 18.2839 74.1797 17.9453C74.263 17.6068 74.3047 17.2474 74.3047 16.8672V16.6875C74.3047 16.3125 74.263 15.9583 74.1797 15.625C74.1016 15.2865 73.9766 14.987 73.8047 14.7266C73.638 14.4661 73.4245 14.263 73.1641 14.1172C72.9089 13.9661 72.6042 13.8906 72.25 13.8906C71.8958 13.8906 71.5885 13.9661 71.3281 14.1172C71.0729 14.263 70.862 14.4661 70.6953 14.7266C70.5286 14.987 70.4062 15.2865 70.3281 15.625C70.25 15.9583 70.2109 16.3125 70.2109 16.6875ZM82.9219 19.25V9H84.8125V21H83.1016L82.9219 19.25ZM77.4219 16.8672V16.7031C77.4219 16.0625 77.4974 15.4792 77.6484 14.9531C77.7995 14.4219 78.0182 13.9661 78.3047 13.5859C78.5911 13.2005 78.9401 12.9062 79.3516 12.7031C79.763 12.4948 80.2266 12.3906 80.7422 12.3906C81.2526 12.3906 81.7005 12.4896 82.0859 12.6875C82.4714 12.8854 82.7995 13.1693 83.0703 13.5391C83.3411 13.9036 83.5573 14.3411 83.7188 14.8516C83.8802 15.3568 83.9948 15.9193 84.0625 16.5391V17.0625C83.9948 17.6667 83.8802 18.2188 83.7188 18.7188C83.5573 19.2188 83.3411 19.651 83.0703 20.0156C82.7995 20.3802 82.4688 20.6615 82.0781 20.8594C81.6927 21.0573 81.2422 21.1562 80.7266 21.1562C80.2161 21.1562 79.7552 21.0495 79.3438 20.8359C78.9375 20.6224 78.5911 20.3229 78.3047 19.9375C78.0182 19.5521 77.7995 19.099 77.6484 18.5781C77.4974 18.0521 77.4219 17.4818 77.4219 16.8672ZM79.3047 16.7031V16.8672C79.3047 17.2526 79.3385 17.612 79.4062 17.9453C79.4792 18.2786 79.5911 18.5729 79.7422 18.8281C79.8932 19.0781 80.0885 19.276 80.3281 19.4219C80.5729 19.5625 80.8646 19.6328 81.2031 19.6328C81.6302 19.6328 81.9818 19.5391 82.2578 19.3516C82.5339 19.1641 82.75 18.9115 82.9062 18.5938C83.0677 18.2708 83.1771 17.9115 83.2344 17.5156V16.1016C83.2031 15.7943 83.138 15.5078 83.0391 15.2422C82.9453 14.9766 82.8177 14.7448 82.6562 14.5469C82.4948 14.3438 82.2943 14.1875 82.0547 14.0781C81.8203 13.9635 81.5417 13.9062 81.2188 13.9062C80.875 13.9062 80.5833 13.9792 80.3438 14.125C80.1042 14.2708 79.9062 14.4714 79.75 14.7266C79.599 14.9818 79.487 15.2786 79.4141 15.6172C79.3411 15.9557 79.3047 16.3177 79.3047 16.7031ZM92.7109 14.8125L94.6719 13.4922C95 13.2734 95.2344 13.0599 95.375 12.8516C95.5156 12.638 95.5859 12.3724 95.5859 12.0547C95.5859 11.7839 95.4818 11.5339 95.2734 11.3047C95.0651 11.0755 94.7708 10.9609 94.3906 10.9609C94.125 10.9609 93.901 11.0234 93.7188 11.1484C93.5365 11.2682 93.3984 11.4297 93.3047 11.6328C93.2161 11.8307 93.1719 12.0521 93.1719 12.2969C93.1719 12.5312 93.2318 12.7734 93.3516 13.0234C93.4714 13.2682 93.6354 13.526 93.8438 13.7969C94.0521 14.0625 94.2865 14.349 94.5469 14.6562L99.9219 21H97.7422L93.3516 15.8359C92.9714 15.3776 92.6354 14.9583 92.3438 14.5781C92.0521 14.1927 91.8255 13.8203 91.6641 13.4609C91.5026 13.0964 91.4219 12.7214 91.4219 12.3359C91.4219 11.7422 91.5443 11.2318 91.7891 10.8047C92.0339 10.3776 92.3802 10.0495 92.8281 9.82031C93.276 9.58594 93.7995 9.46875 94.3984 9.46875C94.9766 9.46875 95.474 9.58594 95.8906 9.82031C96.3125 10.0495 96.6354 10.3542 96.8594 10.7344C97.0885 11.1146 97.2031 11.5312 97.2031 11.9844C97.2031 12.3438 97.138 12.6719 97.0078 12.9688C96.8776 13.2656 96.6979 13.5365 96.4688 13.7812C96.2396 14.026 95.974 14.2578 95.6719 14.4766L93.2891 16.2109C93.013 16.4349 92.8073 16.651 92.6719 16.8594C92.5417 17.0625 92.4557 17.25 92.4141 17.4219C92.3724 17.5938 92.3516 17.7448 92.3516 17.875C92.3516 18.2083 92.4219 18.5104 92.5625 18.7812C92.7083 19.0521 92.9193 19.2682 93.1953 19.4297C93.4766 19.5859 93.8177 19.6641 94.2188 19.6641C94.651 19.6641 95.0703 19.5677 95.4766 19.375C95.8828 19.1771 96.2474 18.8984 96.5703 18.5391C96.8932 18.1797 97.1484 17.75 97.3359 17.25C97.5286 16.75 97.625 16.1953 97.625 15.5859H99.25C99.25 16.138 99.1953 16.6615 99.0859 17.1562C98.9818 17.651 98.8125 18.1094 98.5781 18.5312C98.349 18.9531 98.0469 19.3307 97.6719 19.6641C97.6354 19.7005 97.5938 19.7474 97.5469 19.8047C97.5052 19.8568 97.4635 19.901 97.4219 19.9375C96.974 20.349 96.4714 20.6562 95.9141 20.8594C95.362 21.0573 94.7734 21.1562 94.1484 21.1562C93.3932 21.1562 92.7396 21.0182 92.1875 20.7422C91.6354 20.4661 91.2083 20.0859 90.9062 19.6016C90.6094 19.1172 90.4609 18.5625 90.4609 17.9375C90.4609 17.474 90.5573 17.0677 90.75 16.7188C90.9427 16.3646 91.2057 16.0365 91.5391 15.7344C91.8776 15.4271 92.2682 15.1198 92.7109 14.8125ZM110.172 19.25V9H112.062V21H110.352L110.172 19.25ZM104.672 16.8672V16.7031C104.672 16.0625 104.747 15.4792 104.898 14.9531C105.049 14.4219 105.268 13.9661 105.555 13.5859C105.841 13.2005 106.19 12.9062 106.602 12.7031C107.013 12.4948 107.477 12.3906 107.992 12.3906C108.503 12.3906 108.951 12.4896 109.336 12.6875C109.721 12.8854 110.049 13.1693 110.32 13.5391C110.591 13.9036 110.807 14.3411 110.969 14.8516C111.13 15.3568 111.245 15.9193 111.312 16.5391V17.0625C111.245 17.6667 111.13 18.2188 110.969 18.7188C110.807 19.2188 110.591 19.651 110.32 20.0156C110.049 20.3802 109.719 20.6615 109.328 20.8594C108.943 21.0573 108.492 21.1562 107.977 21.1562C107.466 21.1562 107.005 21.0495 106.594 20.8359C106.188 20.6224 105.841 20.3229 105.555 19.9375C105.268 19.5521 105.049 19.099 104.898 18.5781C104.747 18.0521 104.672 17.4818 104.672 16.8672ZM106.555 16.7031V16.8672C106.555 17.2526 106.589 17.612 106.656 17.9453C106.729 18.2786 106.841 18.5729 106.992 18.8281C107.143 19.0781 107.339 19.276 107.578 19.4219C107.823 19.5625 108.115 19.6328 108.453 19.6328C108.88 19.6328 109.232 19.5391 109.508 19.3516C109.784 19.1641 110 18.9115 110.156 18.5938C110.318 18.2708 110.427 17.9115 110.484 17.5156V16.1016C110.453 15.7943 110.388 15.5078 110.289 15.2422C110.195 14.9766 110.068 14.7448 109.906 14.5469C109.745 14.3438 109.544 14.1875 109.305 14.0781C109.07 13.9635 108.792 13.9062 108.469 13.9062C108.125 13.9062 107.833 13.9792 107.594 14.125C107.354 14.2708 107.156 14.4714 107 14.7266C106.849 14.9818 106.737 15.2786 106.664 15.6172C106.591 15.9557 106.555 16.3177 106.555 16.7031ZM115.922 14.1562V21H114.039V12.5469H115.836L115.922 14.1562ZM118.508 12.4922L118.492 14.2422C118.378 14.2214 118.253 14.2057 118.117 14.1953C117.987 14.1849 117.857 14.1797 117.727 14.1797C117.404 14.1797 117.12 14.2266 116.875 14.3203C116.63 14.4089 116.424 14.5391 116.258 14.7109C116.096 14.8776 115.971 15.0807 115.883 15.3203C115.794 15.5599 115.742 15.8281 115.727 16.125L115.297 16.1562C115.297 15.625 115.349 15.1328 115.453 14.6797C115.557 14.2266 115.714 13.8281 115.922 13.4844C116.135 13.1406 116.401 12.8724 116.719 12.6797C117.042 12.487 117.414 12.3906 117.836 12.3906C117.951 12.3906 118.073 12.401 118.203 12.4219C118.339 12.4427 118.44 12.4661 118.508 12.4922ZM121.703 12.5469V21H119.812V12.5469H121.703ZM119.688 10.3281C119.688 10.0417 119.781 9.80469 119.969 9.61719C120.161 9.42448 120.427 9.32812 120.766 9.32812C121.099 9.32812 121.362 9.42448 121.555 9.61719C121.747 9.80469 121.844 10.0417 121.844 10.3281C121.844 10.6094 121.747 10.8438 121.555 11.0312C121.362 11.2188 121.099 11.3125 120.766 11.3125C120.427 11.3125 120.161 11.2188 119.969 11.0312C119.781 10.8438 119.688 10.6094 119.688 10.3281ZM125.633 14.3516V21H123.75V12.5469H125.523L125.633 14.3516ZM125.297 16.4609L124.688 16.4531C124.693 15.8542 124.776 15.3047 124.938 14.8047C125.104 14.3047 125.333 13.875 125.625 13.5156C125.922 13.1562 126.276 12.8802 126.688 12.6875C127.099 12.4896 127.557 12.3906 128.062 12.3906C128.469 12.3906 128.836 12.4479 129.164 12.5625C129.497 12.6719 129.781 12.8516 130.016 13.1016C130.255 13.3516 130.438 13.6771 130.562 14.0781C130.688 14.474 130.75 14.9609 130.75 15.5391V21H128.859V15.5312C128.859 15.125 128.799 14.8047 128.68 14.5703C128.565 14.3307 128.396 14.1615 128.172 14.0625C127.953 13.9583 127.68 13.9062 127.352 13.9062C127.029 13.9062 126.74 13.974 126.484 14.1094C126.229 14.2448 126.013 14.4297 125.836 14.6641C125.664 14.8984 125.531 15.1693 125.438 15.4766C125.344 15.7839 125.297 16.112 125.297 16.4609ZM134.57 9V21H132.68V9H134.57ZM139.82 12.5469L136.141 16.625L134.125 18.6875L133.633 17.0938L135.156 15.2109L137.547 12.5469H139.82ZM137.953 21L135.211 17.0312L136.398 15.7109L140.133 21H137.953Z" fill="black"/>
<rect x="110" y="28" width="140" height="5" rx="2.5" fill="#F0F0F0"/>
<rect x="50" y="28" width="100" height="5" rx="2.5" fill="#4F62C0"/>
<circle cx="20" cy="80" r="20" fill="#00D159"/>
<path d="M20.0984 72.6313H24.7156V74.6047H20.0984V72.6313Z" fill="#E5E4DF"/>
<path d="M20.3844 74.6047H19.7188V73.9484H20.3844V74.6047ZM20.3844 72.6266H19.8641C19.7844 72.6266 19.7188 72.6922 19.7188 72.7719V73.2828H20.3844V72.6266ZM24.0594 74.6047H24.725V73.9484H24.0594V74.6047ZM24.0594 73.2875H24.725V72.7766C24.725 72.6969 24.6594 72.6312 24.5797 72.6312H24.0594V73.2875Z" fill="#2B3B47"/>
<path d="M31.9859 81.6266V83.5906C31.9859 84.4625 31.2781 85.1703 30.4062 85.1703H8.42187C8.22031 85.1703 8.05624 85.0062 8.05624 84.8047V83.5062C8.05624 83.3047 8.22031 83.1406 8.42187 83.1406C8.62343 83.1406 8.59062 82.9766 8.59062 82.775C8.59062 81.9547 8.64687 80.9797 9.40156 80.6422C9.40156 80.6422 11.3703 79.2969 13.4375 79.2406L15.5516 75.5141C15.9219 74.8578 16.6203 74.4547 17.375 74.4547H26.2109C27.0781 74.4547 27.875 74.9516 28.2547 75.7297L30.0031 79.3109L31.3765 80.3703C31.7609 80.675 31.9859 81.1391 31.9859 81.6266ZM20.3844 73.2875H19.7187V73.9438H20.3844V73.2875ZM24.0594 73.9438H24.725V73.2875H24.0594V73.9438Z" fill="#FFB636"/>
<path d="M10.5781 84.7672C10.5781 82.9391 12.0594 81.4578 13.8875 81.4578C15.7156 81.4578 17.1969 82.9391 17.1969 84.7672V85.1703H10.5781V84.7672ZM22.7 85.1656H29.3187V84.7625C29.3187 82.9344 27.8375 81.4531 26.0094 81.4531C24.1812 81.4531 22.7 82.9344 22.7 84.7625V85.1656Z" fill="#E08820"/>
<path d="M16.6297 84.8375C16.6297 86.3187 15.4297 87.5141 13.9531 87.5141C12.4766 87.5141 11.2766 86.3141 11.2766 84.8375C11.2766 83.3609 12.4766 82.1609 13.9531 82.1609C15.4297 82.1609 16.6297 83.3609 16.6297 84.8375ZM26.0797 82.1609C24.5984 82.1609 23.4031 83.3609 23.4031 84.8375C23.4031 86.3141 24.6031 87.5141 26.0797 87.5141C27.5562 87.5141 28.7562 86.3141 28.7562 84.8375C28.7562 83.3609 27.5562 82.1609 26.0797 82.1609Z" fill="#2B3B47"/>
<path d="M15.7203 78.875L27.9219 78.9078C28.1703 78.9078 28.3344 78.6453 28.2266 78.4203L27.2656 76.4516C27.0172 75.9406 26.4875 75.6125 25.9203 75.6125H17.7687C17.2953 75.6125 16.8547 75.8656 16.6203 76.2781L15.4297 78.3734C15.3031 78.5984 15.4625 78.875 15.7203 78.875Z" fill="white"/>
<path d="M21.0219 74.0797H20.9563C20.9141 74.0797 20.8766 74.0469 20.8766 74V73.3953C20.8766 73.3531 20.8438 73.3156 20.7969 73.3156H20.6938C20.6516 73.3156 20.6141 73.2828 20.6141 73.2359V73.2219C20.6141 73.1797 20.6469 73.1422 20.6938 73.1422H21.2797C21.3266 73.1422 21.3641 73.1844 21.3594 73.2312V73.2453C21.3547 73.2828 21.3219 73.3109 21.2797 73.3109H21.1766C21.1344 73.3109 21.0969 73.3437 21.0969 73.3906V73.9953C21.0969 74.0469 21.0641 74.0797 21.0219 74.0797ZM21.6219 73.9391L21.6031 74.0187C21.5938 74.0516 21.5609 74.0797 21.5281 74.0797H21.4625C21.4109 74.0797 21.3734 74.0281 21.3875 73.9766L21.6219 73.2031C21.6313 73.1703 21.6641 73.1469 21.6969 73.1469H21.8516C21.8844 73.1469 21.9172 73.1703 21.9266 73.2031L22.1609 73.9766C22.175 74.0281 22.1375 74.0797 22.0859 74.0797H22.0156C21.9781 74.0797 21.95 74.0562 21.9406 74.0187L21.9219 73.9391C21.9125 73.9062 21.8797 73.8781 21.8469 73.8781H21.7016C21.6594 73.8828 21.6266 73.9062 21.6219 73.9391ZM21.7672 73.7187C21.8188 73.7187 21.8563 73.6719 21.8422 73.6203L21.7672 73.3062L21.6922 73.6203C21.6828 73.6719 21.7203 73.7187 21.7672 73.7187ZM22.5828 73.1984L22.6297 73.3016C22.6578 73.3625 22.7422 73.3625 22.7703 73.3016L22.8219 73.1984C22.8359 73.1703 22.8641 73.1562 22.8922 73.1562H22.9438C23.0047 73.1562 23.0422 73.2219 23.0094 73.2734L22.85 73.5453C22.8359 73.5687 22.8359 73.5969 22.85 73.6203L23.0375 73.9719C23.0656 74.0234 23.0281 74.0891 22.9672 74.0891H22.9063C22.8734 74.0891 22.85 74.0703 22.8359 74.0422L22.7656 73.8922C22.7375 73.8312 22.6531 73.8312 22.625 73.8922L22.5547 74.0422C22.5406 74.0703 22.5125 74.0891 22.4844 74.0891H22.4281C22.3672 74.0891 22.3297 74.0281 22.3578 73.9766L22.5406 73.6344C22.5547 73.6109 22.5547 73.5828 22.5406 73.5594L22.3813 73.2781C22.3531 73.2266 22.3906 73.1609 22.4516 73.1609H22.5078C22.5406 73.1516 22.5688 73.1703 22.5828 73.1984ZM23.7078 73.3156H23.6703C23.6281 73.3156 23.5906 73.3484 23.5906 73.3953V73.8406C23.5906 73.8828 23.6234 73.9203 23.6703 73.9203H23.7078C23.75 73.9203 23.7875 73.9531 23.7875 74V74.0094C23.7875 74.0516 23.7547 74.0891 23.7078 74.0891H23.2578C23.2156 74.0891 23.1781 74.0562 23.1781 74.0094V74C23.1781 73.9578 23.2109 73.9203 23.2578 73.9203H23.2953C23.3375 73.9203 23.375 73.8875 23.375 73.8406V73.3906C23.375 73.3484 23.3422 73.3109 23.2953 73.3109H23.2578C23.2156 73.3109 23.1781 73.2781 23.1781 73.2312V73.2266C23.1781 73.1844 23.2109 73.1469 23.2578 73.1469H23.7078C23.75 73.1469 23.7875 73.1797 23.7875 73.2266V73.2312C23.7875 73.2781 23.75 73.3156 23.7078 73.3156Z" fill="#2B3B47"/>
<path d="M22.3719 74.8016H23.6797V79.5641H22.3719V74.8016Z" fill="#FFB636"/>
<path d="M15.7109 84.8375C15.7109 85.8078 14.9234 86.5906 13.9578 86.5906C12.9922 86.5906 12.2047 85.8031 12.2047 84.8375C12.2047 83.8672 12.9922 83.0844 13.9578 83.0844C14.9234 83.0844 15.7109 83.8672 15.7109 84.8375ZM26.0797 83.0844C25.1094 83.0844 24.3265 83.8719 24.3265 84.8375C24.3265 85.8078 25.114 86.5906 26.0797 86.5906C27.05 86.5906 27.8328 85.8031 27.8328 84.8375C27.8328 83.8672 27.0453 83.0844 26.0797 83.0844Z" fill="#9BA5A8"/>
<path d="M14.5672 84.8375C14.5672 85.175 14.2906 85.4516 13.9531 85.4516C13.6156 85.4516 13.3391 85.175 13.3391 84.8375C13.3391 84.5 13.6156 84.2234 13.9531 84.2234C14.2906 84.2234 14.5672 84.5 14.5672 84.8375ZM26.0797 84.2234C25.7422 84.2234 25.4656 84.5 25.4656 84.8375C25.4656 85.175 25.7422 85.4516 26.0797 85.4516C26.4172 85.4516 26.6937 85.175 26.6937 84.8375C26.6937 84.5 26.4172 84.2234 26.0797 84.2234Z" fill="#E5E4DF"/>
<path d="M31.9813 83.0469H31.6203C31.2313 83.0469 30.9875 82.7281 30.9875 82.3391C30.9875 81.95 31.2313 81.6313 31.6203 81.6313H31.9813V83.0469ZM8.57657 82.9484H8.98438C9.37345 82.9484 9.6172 82.6297 9.6172 82.2406C9.6172 81.8516 9.37345 81.5328 8.98438 81.5328H8.70782C8.56251 81.8234 8.57657 82.9484 8.57657 82.9484Z" fill="#FF473E"/>
<path d="M17.6937 78.0734V78.9875C17.6937 79.2547 17.3234 79.4094 17.0562 79.2594C16.8687 79.1563 16.6766 79.025 16.5406 78.8891H15.6172C15.3734 78.8891 15.2281 78.6219 15.3547 78.4203L16.2781 76.8781L16.6719 78.0641C16.7844 77.9703 16.9156 77.8859 17.0469 77.8062C17.3141 77.6469 17.6937 77.8062 17.6937 78.0734ZM28.1516 78.9078C28.3531 78.9078 28.4891 78.6922 28.4 78.5094L27.1156 75.8891C27.0359 75.7297 26.8719 75.6266 26.6938 75.6266H26.0797V78.9172L28.1516 78.9078Z" fill="#2B3B47"/>
<path d="M53.1172 69.625V81H51.1562V69.625H53.1172ZM57.7578 74.6016V76.1562H52.6172V74.6016H57.7578ZM58.4062 69.625V71.1875H52.6172V69.625H58.4062ZM59.25 76.8672V76.6875C59.25 76.0781 59.3385 75.513 59.5156 74.9922C59.6927 74.4661 59.9479 74.0104 60.2812 73.625C60.6198 73.2344 61.0312 72.9323 61.5156 72.7188C62.0052 72.5 62.5573 72.3906 63.1719 72.3906C63.7917 72.3906 64.3438 72.5 64.8281 72.7188C65.3177 72.9323 65.7318 73.2344 66.0703 73.625C66.4089 74.0104 66.6667 74.4661 66.8438 74.9922C67.0208 75.513 67.1094 76.0781 67.1094 76.6875V76.8672C67.1094 77.4766 67.0208 78.0417 66.8438 78.5625C66.6667 79.0833 66.4089 79.5391 66.0703 79.9297C65.7318 80.3151 65.3203 80.6172 64.8359 80.8359C64.3516 81.0495 63.8021 81.1562 63.1875 81.1562C62.5677 81.1562 62.013 81.0495 61.5234 80.8359C61.0391 80.6172 60.6276 80.3151 60.2891 79.9297C59.9505 79.5391 59.6927 79.0833 59.5156 78.5625C59.3385 78.0417 59.25 77.4766 59.25 76.8672ZM61.1328 76.6875V76.8672C61.1328 77.2474 61.1719 77.6068 61.25 77.9453C61.3281 78.2839 61.4505 78.5807 61.6172 78.8359C61.7839 79.0911 61.9974 79.2917 62.2578 79.4375C62.5182 79.5833 62.8281 79.6562 63.1875 79.6562C63.5365 79.6562 63.8385 79.5833 64.0938 79.4375C64.3542 79.2917 64.5677 79.0911 64.7344 78.8359C64.901 78.5807 65.0234 78.2839 65.1016 77.9453C65.1849 77.6068 65.2266 77.2474 65.2266 76.8672V76.6875C65.2266 76.3125 65.1849 75.9583 65.1016 75.625C65.0234 75.2865 64.8984 74.987 64.7266 74.7266C64.5599 74.4661 64.3464 74.263 64.0859 74.1172C63.8307 73.9661 63.526 73.8906 63.1719 73.8906C62.8177 73.8906 62.5104 73.9661 62.25 74.1172C61.9948 74.263 61.7839 74.4661 61.6172 74.7266C61.4505 74.987 61.3281 75.2865 61.25 75.625C61.1719 75.9583 61.1328 76.3125 61.1328 76.6875ZM68.3281 76.8672V76.6875C68.3281 76.0781 68.4167 75.513 68.5938 74.9922C68.7708 74.4661 69.026 74.0104 69.3594 73.625C69.6979 73.2344 70.1094 72.9323 70.5938 72.7188C71.0833 72.5 71.6354 72.3906 72.25 72.3906C72.8698 72.3906 73.4219 72.5 73.9062 72.7188C74.3958 72.9323 74.8099 73.2344 75.1484 73.625C75.487 74.0104 75.7448 74.4661 75.9219 74.9922C76.099 75.513 76.1875 76.0781 76.1875 76.6875V76.8672C76.1875 77.4766 76.099 78.0417 75.9219 78.5625C75.7448 79.0833 75.487 79.5391 75.1484 79.9297C74.8099 80.3151 74.3984 80.6172 73.9141 80.8359C73.4297 81.0495 72.8802 81.1562 72.2656 81.1562C71.6458 81.1562 71.0911 81.0495 70.6016 80.8359C70.1172 80.6172 69.7057 80.3151 69.3672 79.9297C69.0286 79.5391 68.7708 79.0833 68.5938 78.5625C68.4167 78.0417 68.3281 77.4766 68.3281 76.8672ZM70.2109 76.6875V76.8672C70.2109 77.2474 70.25 77.6068 70.3281 77.9453C70.4062 78.2839 70.5286 78.5807 70.6953 78.8359C70.862 79.0911 71.0755 79.2917 71.3359 79.4375C71.5964 79.5833 71.9062 79.6562 72.2656 79.6562C72.6146 79.6562 72.9167 79.5833 73.1719 79.4375C73.4323 79.2917 73.6458 79.0911 73.8125 78.8359C73.9792 78.5807 74.1016 78.2839 74.1797 77.9453C74.263 77.6068 74.3047 77.2474 74.3047 76.8672V76.6875C74.3047 76.3125 74.263 75.9583 74.1797 75.625C74.1016 75.2865 73.9766 74.987 73.8047 74.7266C73.638 74.4661 73.4245 74.263 73.1641 74.1172C72.9089 73.9661 72.6042 73.8906 72.25 73.8906C71.8958 73.8906 71.5885 73.9661 71.3281 74.1172C71.0729 74.263 70.862 74.4661 70.6953 74.7266C70.5286 74.987 70.4062 75.2865 70.3281 75.625C70.25 75.9583 70.2109 76.3125 70.2109 76.6875ZM82.9219 79.25V69H84.8125V81H83.1016L82.9219 79.25ZM77.4219 76.8672V76.7031C77.4219 76.0625 77.4974 75.4792 77.6484 74.9531C77.7995 74.4219 78.0182 73.9661 78.3047 73.5859C78.5911 73.2005 78.9401 72.9062 79.3516 72.7031C79.763 72.4948 80.2266 72.3906 80.7422 72.3906C81.2526 72.3906 81.7005 72.4896 82.0859 72.6875C82.4714 72.8854 82.7995 73.1693 83.0703 73.5391C83.3411 73.9036 83.5573 74.3411 83.7188 74.8516C83.8802 75.3568 83.9948 75.9193 84.0625 76.5391V77.0625C83.9948 77.6667 83.8802 78.2188 83.7188 78.7188C83.5573 79.2188 83.3411 79.651 83.0703 80.0156C82.7995 80.3802 82.4688 80.6615 82.0781 80.8594C81.6927 81.0573 81.2422 81.1562 80.7266 81.1562C80.2161 81.1562 79.7552 81.0495 79.3438 80.8359C78.9375 80.6224 78.5911 80.3229 78.3047 79.9375C78.0182 79.5521 77.7995 79.099 77.6484 78.5781C77.4974 78.0521 77.4219 77.4818 77.4219 76.8672ZM79.3047 76.7031V76.8672C79.3047 77.2526 79.3385 77.612 79.4062 77.9453C79.4792 78.2786 79.5911 78.5729 79.7422 78.8281C79.8932 79.0781 80.0885 79.276 80.3281 79.4219C80.5729 79.5625 80.8646 79.6328 81.2031 79.6328C81.6302 79.6328 81.9818 79.5391 82.2578 79.3516C82.5339 79.1641 82.75 78.9115 82.9062 78.5938C83.0677 78.2708 83.1771 77.9115 83.2344 77.5156V76.1016C83.2031 75.7943 83.138 75.5078 83.0391 75.2422C82.9453 74.9766 82.8177 74.7448 82.6562 74.5469C82.4948 74.3438 82.2943 74.1875 82.0547 74.0781C81.8203 73.9635 81.5417 73.9062 81.2188 73.9062C80.875 73.9062 80.5833 73.9792 80.3438 74.125C80.1042 74.2708 79.9062 74.4714 79.75 74.7266C79.599 74.9818 79.487 75.2786 79.4141 75.6172C79.3411 75.9557 79.3047 76.3177 79.3047 76.7031ZM92.7109 74.8125L94.6719 73.4922C95 73.2734 95.2344 73.0599 95.375 72.8516C95.5156 72.638 95.5859 72.3724 95.5859 72.0547C95.5859 71.7839 95.4818 71.5339 95.2734 71.3047C95.0651 71.0755 94.7708 70.9609 94.3906 70.9609C94.125 70.9609 93.901 71.0234 93.7188 71.1484C93.5365 71.2682 93.3984 71.4297 93.3047 71.6328C93.2161 71.8307 93.1719 72.0521 93.1719 72.2969C93.1719 72.5312 93.2318 72.7734 93.3516 73.0234C93.4714 73.2682 93.6354 73.526 93.8438 73.7969C94.0521 74.0625 94.2865 74.349 94.5469 74.6562L99.9219 81H97.7422L93.3516 75.8359C92.9714 75.3776 92.6354 74.9583 92.3438 74.5781C92.0521 74.1927 91.8255 73.8203 91.6641 73.4609C91.5026 73.0964 91.4219 72.7214 91.4219 72.3359C91.4219 71.7422 91.5443 71.2318 91.7891 70.8047C92.0339 70.3776 92.3802 70.0495 92.8281 69.8203C93.276 69.5859 93.7995 69.4688 94.3984 69.4688C94.9766 69.4688 95.474 69.5859 95.8906 69.8203C96.3125 70.0495 96.6354 70.3542 96.8594 70.7344C97.0885 71.1146 97.2031 71.5312 97.2031 71.9844C97.2031 72.3438 97.138 72.6719 97.0078 72.9688C96.8776 73.2656 96.6979 73.5365 96.4688 73.7812C96.2396 74.026 95.974 74.2578 95.6719 74.4766L93.2891 76.2109C93.013 76.4349 92.8073 76.651 92.6719 76.8594C92.5417 77.0625 92.4557 77.25 92.4141 77.4219C92.3724 77.5938 92.3516 77.7448 92.3516 77.875C92.3516 78.2083 92.4219 78.5104 92.5625 78.7812C92.7083 79.0521 92.9193 79.2682 93.1953 79.4297C93.4766 79.5859 93.8177 79.6641 94.2188 79.6641C94.651 79.6641 95.0703 79.5677 95.4766 79.375C95.8828 79.1771 96.2474 78.8984 96.5703 78.5391C96.8932 78.1797 97.1484 77.75 97.3359 77.25C97.5286 76.75 97.625 76.1953 97.625 75.5859H99.25C99.25 76.138 99.1953 76.6615 99.0859 77.1562C98.9818 77.651 98.8125 78.1094 98.5781 78.5312C98.349 78.9531 98.0469 79.3307 97.6719 79.6641C97.6354 79.7005 97.5938 79.7474 97.5469 79.8047C97.5052 79.8568 97.4635 79.901 97.4219 79.9375C96.974 80.349 96.4714 80.6562 95.9141 80.8594C95.362 81.0573 94.7734 81.1562 94.1484 81.1562C93.3932 81.1562 92.7396 81.0182 92.1875 80.7422C91.6354 80.4661 91.2083 80.0859 90.9062 79.6016C90.6094 79.1172 90.4609 78.5625 90.4609 77.9375C90.4609 77.474 90.5573 77.0677 90.75 76.7188C90.9427 76.3646 91.2057 76.0365 91.5391 75.7344C91.8776 75.4271 92.2682 75.1198 92.7109 74.8125ZM110.172 79.25V69H112.062V81H110.352L110.172 79.25ZM104.672 76.8672V76.7031C104.672 76.0625 104.747 75.4792 104.898 74.9531C105.049 74.4219 105.268 73.9661 105.555 73.5859C105.841 73.2005 106.19 72.9062 106.602 72.7031C107.013 72.4948 107.477 72.3906 107.992 72.3906C108.503 72.3906 108.951 72.4896 109.336 72.6875C109.721 72.8854 110.049 73.1693 110.32 73.5391C110.591 73.9036 110.807 74.3411 110.969 74.8516C111.13 75.3568 111.245 75.9193 111.312 76.5391V77.0625C111.245 77.6667 111.13 78.2188 110.969 78.7188C110.807 79.2188 110.591 79.651 110.32 80.0156C110.049 80.3802 109.719 80.6615 109.328 80.8594C108.943 81.0573 108.492 81.1562 107.977 81.1562C107.466 81.1562 107.005 81.0495 106.594 80.8359C106.188 80.6224 105.841 80.3229 105.555 79.9375C105.268 79.5521 105.049 79.099 104.898 78.5781C104.747 78.0521 104.672 77.4818 104.672 76.8672ZM106.555 76.7031V76.8672C106.555 77.2526 106.589 77.612 106.656 77.9453C106.729 78.2786 106.841 78.5729 106.992 78.8281C107.143 79.0781 107.339 79.276 107.578 79.4219C107.823 79.5625 108.115 79.6328 108.453 79.6328C108.88 79.6328 109.232 79.5391 109.508 79.3516C109.784 79.1641 110 78.9115 110.156 78.5938C110.318 78.2708 110.427 77.9115 110.484 77.5156V76.1016C110.453 75.7943 110.388 75.5078 110.289 75.2422C110.195 74.9766 110.068 74.7448 109.906 74.5469C109.745 74.3438 109.544 74.1875 109.305 74.0781C109.07 73.9635 108.792 73.9062 108.469 73.9062C108.125 73.9062 107.833 73.9792 107.594 74.125C107.354 74.2708 107.156 74.4714 107 74.7266C106.849 74.9818 106.737 75.2786 106.664 75.6172C106.591 75.9557 106.555 76.3177 106.555 76.7031ZM115.922 74.1562V81H114.039V72.5469H115.836L115.922 74.1562ZM118.508 72.4922L118.492 74.2422C118.378 74.2214 118.253 74.2057 118.117 74.1953C117.987 74.1849 117.857 74.1797 117.727 74.1797C117.404 74.1797 117.12 74.2266 116.875 74.3203C116.63 74.4089 116.424 74.5391 116.258 74.7109C116.096 74.8776 115.971 75.0807 115.883 75.3203C115.794 75.5599 115.742 75.8281 115.727 76.125L115.297 76.1562C115.297 75.625 115.349 75.1328 115.453 74.6797C115.557 74.2266 115.714 73.8281 115.922 73.4844C116.135 73.1406 116.401 72.8724 116.719 72.6797C117.042 72.487 117.414 72.3906 117.836 72.3906C117.951 72.3906 118.073 72.401 118.203 72.4219C118.339 72.4427 118.44 72.4661 118.508 72.4922ZM121.703 72.5469V81H119.812V72.5469H121.703ZM119.688 70.3281C119.688 70.0417 119.781 69.8047 119.969 69.6172C120.161 69.4245 120.427 69.3281 120.766 69.3281C121.099 69.3281 121.362 69.4245 121.555 69.6172C121.747 69.8047 121.844 70.0417 121.844 70.3281C121.844 70.6094 121.747 70.8438 121.555 71.0312C121.362 71.2188 121.099 71.3125 120.766 71.3125C120.427 71.3125 120.161 71.2188 119.969 71.0312C119.781 70.8438 119.688 70.6094 119.688 70.3281ZM125.633 74.3516V81H123.75V72.5469H125.523L125.633 74.3516ZM125.297 76.4609L124.688 76.4531C124.693 75.8542 124.776 75.3047 124.938 74.8047C125.104 74.3047 125.333 73.875 125.625 73.5156C125.922 73.1562 126.276 72.8802 126.688 72.6875C127.099 72.4896 127.557 72.3906 128.062 72.3906C128.469 72.3906 128.836 72.4479 129.164 72.5625C129.497 72.6719 129.781 72.8516 130.016 73.1016C130.255 73.3516 130.438 73.6771 130.562 74.0781C130.688 74.474 130.75 74.9609 130.75 75.5391V81H128.859V75.5312C128.859 75.125 128.799 74.8047 128.68 74.5703C128.565 74.3307 128.396 74.1615 128.172 74.0625C127.953 73.9583 127.68 73.9062 127.352 73.9062C127.029 73.9062 126.74 73.974 126.484 74.1094C126.229 74.2448 126.013 74.4297 125.836 74.6641C125.664 74.8984 125.531 75.1693 125.438 75.4766C125.344 75.7839 125.297 76.112 125.297 76.4609ZM134.57 69V81H132.68V69H134.57ZM139.82 72.5469L136.141 76.625L134.125 78.6875L133.633 77.0938L135.156 75.2109L137.547 72.5469H139.82ZM137.953 81L135.211 77.0312L136.398 75.7109L140.133 81H137.953Z" fill="black"/>
<rect x="110" y="88" width="140" height="5" rx="2.5" fill="#F0F0F0"/>
<rect x="50" y="88" width="145" height="5" rx="2.5" fill="#FF1C45"/>
<circle cx="20" cy="140" r="20" fill="#FFD468"/>
<path d="M13 141.18V143.99C13 144.72 13.4 145.4 14.04 145.75L19.04 148.48C19.64 148.81 20.36 148.81 20.96 148.48L25.96 145.75C26.6 145.4 27 144.72 27 143.99V141.18L20.96 144.48C20.36 144.81 19.64 144.81 19.04 144.48L13 141.18ZM19.04 131.52L10.61 136.12C9.92 136.5 9.92 137.5 10.61 137.88L19.04 142.48C19.64 142.81 20.36 142.81 20.96 142.48L29 138.09V144C29 144.55 29.45 145 30 145C30.55 145 31 144.55 31 144V137.59C31 137.22 30.8 136.89 30.48 136.71L20.96 131.52C20.6645 131.362 20.3348 131.28 20 131.28C19.6652 131.28 19.3355 131.362 19.04 131.52Z" fill="#427CCE"/>
<path d="M53.1172 129.625V141H51.1562V129.625H53.1172ZM57.7578 134.602V136.156H52.6172V134.602H57.7578ZM58.4062 129.625V131.188H52.6172V129.625H58.4062ZM59.25 136.867V136.688C59.25 136.078 59.3385 135.513 59.5156 134.992C59.6927 134.466 59.9479 134.01 60.2812 133.625C60.6198 133.234 61.0312 132.932 61.5156 132.719C62.0052 132.5 62.5573 132.391 63.1719 132.391C63.7917 132.391 64.3438 132.5 64.8281 132.719C65.3177 132.932 65.7318 133.234 66.0703 133.625C66.4089 134.01 66.6667 134.466 66.8438 134.992C67.0208 135.513 67.1094 136.078 67.1094 136.688V136.867C67.1094 137.477 67.0208 138.042 66.8438 138.562C66.6667 139.083 66.4089 139.539 66.0703 139.93C65.7318 140.315 65.3203 140.617 64.8359 140.836C64.3516 141.049 63.8021 141.156 63.1875 141.156C62.5677 141.156 62.013 141.049 61.5234 140.836C61.0391 140.617 60.6276 140.315 60.2891 139.93C59.9505 139.539 59.6927 139.083 59.5156 138.562C59.3385 138.042 59.25 137.477 59.25 136.867ZM61.1328 136.688V136.867C61.1328 137.247 61.1719 137.607 61.25 137.945C61.3281 138.284 61.4505 138.581 61.6172 138.836C61.7839 139.091 61.9974 139.292 62.2578 139.438C62.5182 139.583 62.8281 139.656 63.1875 139.656C63.5365 139.656 63.8385 139.583 64.0938 139.438C64.3542 139.292 64.5677 139.091 64.7344 138.836C64.901 138.581 65.0234 138.284 65.1016 137.945C65.1849 137.607 65.2266 137.247 65.2266 136.867V136.688C65.2266 136.312 65.1849 135.958 65.1016 135.625C65.0234 135.286 64.8984 134.987 64.7266 134.727C64.5599 134.466 64.3464 134.263 64.0859 134.117C63.8307 133.966 63.526 133.891 63.1719 133.891C62.8177 133.891 62.5104 133.966 62.25 134.117C61.9948 134.263 61.7839 134.466 61.6172 134.727C61.4505 134.987 61.3281 135.286 61.25 135.625C61.1719 135.958 61.1328 136.312 61.1328 136.688ZM68.3281 136.867V136.688C68.3281 136.078 68.4167 135.513 68.5938 134.992C68.7708 134.466 69.026 134.01 69.3594 133.625C69.6979 133.234 70.1094 132.932 70.5938 132.719C71.0833 132.5 71.6354 132.391 72.25 132.391C72.8698 132.391 73.4219 132.5 73.9062 132.719C74.3958 132.932 74.8099 133.234 75.1484 133.625C75.487 134.01 75.7448 134.466 75.9219 134.992C76.099 135.513 76.1875 136.078 76.1875 136.688V136.867C76.1875 137.477 76.099 138.042 75.9219 138.562C75.7448 139.083 75.487 139.539 75.1484 139.93C74.8099 140.315 74.3984 140.617 73.9141 140.836C73.4297 141.049 72.8802 141.156 72.2656 141.156C71.6458 141.156 71.0911 141.049 70.6016 140.836C70.1172 140.617 69.7057 140.315 69.3672 139.93C69.0286 139.539 68.7708 139.083 68.5938 138.562C68.4167 138.042 68.3281 137.477 68.3281 136.867ZM70.2109 136.688V136.867C70.2109 137.247 70.25 137.607 70.3281 137.945C70.4062 138.284 70.5286 138.581 70.6953 138.836C70.862 139.091 71.0755 139.292 71.3359 139.438C71.5964 139.583 71.9062 139.656 72.2656 139.656C72.6146 139.656 72.9167 139.583 73.1719 139.438C73.4323 139.292 73.6458 139.091 73.8125 138.836C73.9792 138.581 74.1016 138.284 74.1797 137.945C74.263 137.607 74.3047 137.247 74.3047 136.867V136.688C74.3047 136.312 74.263 135.958 74.1797 135.625C74.1016 135.286 73.9766 134.987 73.8047 134.727C73.638 134.466 73.4245 134.263 73.1641 134.117C72.9089 133.966 72.6042 133.891 72.25 133.891C71.8958 133.891 71.5885 133.966 71.3281 134.117C71.0729 134.263 70.862 134.466 70.6953 134.727C70.5286 134.987 70.4062 135.286 70.3281 135.625C70.25 135.958 70.2109 136.312 70.2109 136.688ZM82.9219 139.25V129H84.8125V141H83.1016L82.9219 139.25ZM77.4219 136.867V136.703C77.4219 136.062 77.4974 135.479 77.6484 134.953C77.7995 134.422 78.0182 133.966 78.3047 133.586C78.5911 133.201 78.9401 132.906 79.3516 132.703C79.763 132.495 80.2266 132.391 80.7422 132.391C81.2526 132.391 81.7005 132.49 82.0859 132.688C82.4714 132.885 82.7995 133.169 83.0703 133.539C83.3411 133.904 83.5573 134.341 83.7188 134.852C83.8802 135.357 83.9948 135.919 84.0625 136.539V137.062C83.9948 137.667 83.8802 138.219 83.7188 138.719C83.5573 139.219 83.3411 139.651 83.0703 140.016C82.7995 140.38 82.4688 140.661 82.0781 140.859C81.6927 141.057 81.2422 141.156 80.7266 141.156C80.2161 141.156 79.7552 141.049 79.3438 140.836C78.9375 140.622 78.5911 140.323 78.3047 139.938C78.0182 139.552 77.7995 139.099 77.6484 138.578C77.4974 138.052 77.4219 137.482 77.4219 136.867ZM79.3047 136.703V136.867C79.3047 137.253 79.3385 137.612 79.4062 137.945C79.4792 138.279 79.5911 138.573 79.7422 138.828C79.8932 139.078 80.0885 139.276 80.3281 139.422C80.5729 139.562 80.8646 139.633 81.2031 139.633C81.6302 139.633 81.9818 139.539 82.2578 139.352C82.5339 139.164 82.75 138.911 82.9062 138.594C83.0677 138.271 83.1771 137.911 83.2344 137.516V136.102C83.2031 135.794 83.138 135.508 83.0391 135.242C82.9453 134.977 82.8177 134.745 82.6562 134.547C82.4948 134.344 82.2943 134.188 82.0547 134.078C81.8203 133.964 81.5417 133.906 81.2188 133.906C80.875 133.906 80.5833 133.979 80.3438 134.125C80.1042 134.271 79.9062 134.471 79.75 134.727C79.599 134.982 79.487 135.279 79.4141 135.617C79.3411 135.956 79.3047 136.318 79.3047 136.703ZM92.7109 134.812L94.6719 133.492C95 133.273 95.2344 133.06 95.375 132.852C95.5156 132.638 95.5859 132.372 95.5859 132.055C95.5859 131.784 95.4818 131.534 95.2734 131.305C95.0651 131.076 94.7708 130.961 94.3906 130.961C94.125 130.961 93.901 131.023 93.7188 131.148C93.5365 131.268 93.3984 131.43 93.3047 131.633C93.2161 131.831 93.1719 132.052 93.1719 132.297C93.1719 132.531 93.2318 132.773 93.3516 133.023C93.4714 133.268 93.6354 133.526 93.8438 133.797C94.0521 134.062 94.2865 134.349 94.5469 134.656L99.9219 141H97.7422L93.3516 135.836C92.9714 135.378 92.6354 134.958 92.3438 134.578C92.0521 134.193 91.8255 133.82 91.6641 133.461C91.5026 133.096 91.4219 132.721 91.4219 132.336C91.4219 131.742 91.5443 131.232 91.7891 130.805C92.0339 130.378 92.3802 130.049 92.8281 129.82C93.276 129.586 93.7995 129.469 94.3984 129.469C94.9766 129.469 95.474 129.586 95.8906 129.82C96.3125 130.049 96.6354 130.354 96.8594 130.734C97.0885 131.115 97.2031 131.531 97.2031 131.984C97.2031 132.344 97.138 132.672 97.0078 132.969C96.8776 133.266 96.6979 133.536 96.4688 133.781C96.2396 134.026 95.974 134.258 95.6719 134.477L93.2891 136.211C93.013 136.435 92.8073 136.651 92.6719 136.859C92.5417 137.062 92.4557 137.25 92.4141 137.422C92.3724 137.594 92.3516 137.745 92.3516 137.875C92.3516 138.208 92.4219 138.51 92.5625 138.781C92.7083 139.052 92.9193 139.268 93.1953 139.43C93.4766 139.586 93.8177 139.664 94.2188 139.664C94.651 139.664 95.0703 139.568 95.4766 139.375C95.8828 139.177 96.2474 138.898 96.5703 138.539C96.8932 138.18 97.1484 137.75 97.3359 137.25C97.5286 136.75 97.625 136.195 97.625 135.586H99.25C99.25 136.138 99.1953 136.661 99.0859 137.156C98.9818 137.651 98.8125 138.109 98.5781 138.531C98.349 138.953 98.0469 139.331 97.6719 139.664C97.6354 139.701 97.5938 139.747 97.5469 139.805C97.5052 139.857 97.4635 139.901 97.4219 139.938C96.974 140.349 96.4714 140.656 95.9141 140.859C95.362 141.057 94.7734 141.156 94.1484 141.156C93.3932 141.156 92.7396 141.018 92.1875 140.742C91.6354 140.466 91.2083 140.086 90.9062 139.602C90.6094 139.117 90.4609 138.562 90.4609 137.938C90.4609 137.474 90.5573 137.068 90.75 136.719C90.9427 136.365 91.2057 136.036 91.5391 135.734C91.8776 135.427 92.2682 135.12 92.7109 134.812ZM110.172 139.25V129H112.062V141H110.352L110.172 139.25ZM104.672 136.867V136.703C104.672 136.062 104.747 135.479 104.898 134.953C105.049 134.422 105.268 133.966 105.555 133.586C105.841 133.201 106.19 132.906 106.602 132.703C107.013 132.495 107.477 132.391 107.992 132.391C108.503 132.391 108.951 132.49 109.336 132.688C109.721 132.885 110.049 133.169 110.32 133.539C110.591 133.904 110.807 134.341 110.969 134.852C111.13 135.357 111.245 135.919 111.312 136.539V137.062C111.245 137.667 111.13 138.219 110.969 138.719C110.807 139.219 110.591 139.651 110.32 140.016C110.049 140.38 109.719 140.661 109.328 140.859C108.943 141.057 108.492 141.156 107.977 141.156C107.466 141.156 107.005 141.049 106.594 140.836C106.188 140.622 105.841 140.323 105.555 139.938C105.268 139.552 105.049 139.099 104.898 138.578C104.747 138.052 104.672 137.482 104.672 136.867ZM106.555 136.703V136.867C106.555 137.253 106.589 137.612 106.656 137.945C106.729 138.279 106.841 138.573 106.992 138.828C107.143 139.078 107.339 139.276 107.578 139.422C107.823 139.562 108.115 139.633 108.453 139.633C108.88 139.633 109.232 139.539 109.508 139.352C109.784 139.164 110 138.911 110.156 138.594C110.318 138.271 110.427 137.911 110.484 137.516V136.102C110.453 135.794 110.388 135.508 110.289 135.242C110.195 134.977 110.068 134.745 109.906 134.547C109.745 134.344 109.544 134.188 109.305 134.078C109.07 133.964 108.792 133.906 108.469 133.906C108.125 133.906 107.833 133.979 107.594 134.125C107.354 134.271 107.156 134.471 107 134.727C106.849 134.982 106.737 135.279 106.664 135.617C106.591 135.956 106.555 136.318 106.555 136.703ZM115.922 134.156V141H114.039V132.547H115.836L115.922 134.156ZM118.508 132.492L118.492 134.242C118.378 134.221 118.253 134.206 118.117 134.195C117.987 134.185 117.857 134.18 117.727 134.18C117.404 134.18 117.12 134.227 116.875 134.32C116.63 134.409 116.424 134.539 116.258 134.711C116.096 134.878 115.971 135.081 115.883 135.32C115.794 135.56 115.742 135.828 115.727 136.125L115.297 136.156C115.297 135.625 115.349 135.133 115.453 134.68C115.557 134.227 115.714 133.828 115.922 133.484C116.135 133.141 116.401 132.872 116.719 132.68C117.042 132.487 117.414 132.391 117.836 132.391C117.951 132.391 118.073 132.401 118.203 132.422C118.339 132.443 118.44 132.466 118.508 132.492ZM121.703 132.547V141H119.812V132.547H121.703ZM119.688 130.328C119.688 130.042 119.781 129.805 119.969 129.617C120.161 129.424 120.427 129.328 120.766 129.328C121.099 129.328 121.362 129.424 121.555 129.617C121.747 129.805 121.844 130.042 121.844 130.328C121.844 130.609 121.747 130.844 121.555 131.031C121.362 131.219 121.099 131.312 120.766 131.312C120.427 131.312 120.161 131.219 119.969 131.031C119.781 130.844 119.688 130.609 119.688 130.328ZM125.633 134.352V141H123.75V132.547H125.523L125.633 134.352ZM125.297 136.461L124.688 136.453C124.693 135.854 124.776 135.305 124.938 134.805C125.104 134.305 125.333 133.875 125.625 133.516C125.922 133.156 126.276 132.88 126.688 132.688C127.099 132.49 127.557 132.391 128.062 132.391C128.469 132.391 128.836 132.448 129.164 132.562C129.497 132.672 129.781 132.852 130.016 133.102C130.255 133.352 130.438 133.677 130.562 134.078C130.688 134.474 130.75 134.961 130.75 135.539V141H128.859V135.531C128.859 135.125 128.799 134.805 128.68 134.57C128.565 134.331 128.396 134.161 128.172 134.062C127.953 133.958 127.68 133.906 127.352 133.906C127.029 133.906 126.74 133.974 126.484 134.109C126.229 134.245 126.013 134.43 125.836 134.664C125.664 134.898 125.531 135.169 125.438 135.477C125.344 135.784 125.297 136.112 125.297 136.461ZM134.57 129V141H132.68V129H134.57ZM139.82 132.547L136.141 136.625L134.125 138.688L133.633 137.094L135.156 135.211L137.547 132.547H139.82ZM137.953 141L135.211 137.031L136.398 135.711L140.133 141H137.953Z" fill="black"/>
<rect x="190" y="127" width="60" height="25" rx="12.5" fill="#4F62C0" fill-opacity="0.3"/>
<path d="M210.888 136.373L207.914 145H206.116L209.862 135.047H211.011L210.888 136.373ZM213.376 145L210.396 136.373L210.266 135.047H211.421L215.181 145H213.376ZM213.232 141.309V142.669H207.818V141.309H213.232ZM218.907 145H216.781L216.794 143.64H218.907C219.522 143.64 220.037 143.505 220.451 143.236C220.871 142.967 221.185 142.582 221.395 142.081C221.609 141.58 221.716 140.983 221.716 140.29V139.75C221.716 139.212 221.655 138.736 221.532 138.321C221.413 137.907 221.235 137.558 220.998 137.275C220.766 136.993 220.479 136.779 220.137 136.633C219.8 136.487 219.41 136.414 218.968 136.414H216.74V135.047H218.968C219.629 135.047 220.233 135.159 220.78 135.382C221.326 135.601 221.798 135.917 222.195 136.332C222.596 136.747 222.903 137.243 223.117 137.822C223.332 138.401 223.439 139.048 223.439 139.764V140.29C223.439 141.006 223.332 141.653 223.117 142.231C222.903 142.81 222.596 143.307 222.195 143.722C221.794 144.132 221.315 144.449 220.759 144.672C220.208 144.891 219.59 145 218.907 145ZM217.731 135.047V145H216.015V135.047H217.731ZM227.773 145H225.647L225.661 143.64H227.773C228.388 143.64 228.903 143.505 229.318 143.236C229.737 142.967 230.052 142.582 230.261 142.081C230.475 141.58 230.583 140.983 230.583 140.29V139.75C230.583 139.212 230.521 138.736 230.398 138.321C230.28 137.907 230.102 137.558 229.865 137.275C229.632 136.993 229.345 136.779 229.003 136.633C228.666 136.487 228.277 136.414 227.835 136.414H225.606V135.047H227.835C228.495 135.047 229.099 135.159 229.646 135.382C230.193 135.601 230.665 135.917 231.061 136.332C231.462 136.747 231.77 137.243 231.984 137.822C232.198 138.401 232.305 139.048 232.305 139.764V140.29C232.305 141.006 232.198 141.653 231.984 142.231C231.77 142.81 231.462 143.307 231.061 143.722C230.66 144.132 230.182 144.449 229.626 144.672C229.074 144.891 228.457 145 227.773 145ZM226.597 135.047V145H224.881V135.047H226.597Z" fill="#4F62C0"/>
<defs>
<radialGradient id="paint0_radial_53_357" cx="0" cy="0" r="1" gradientUnits="userSpaceOnUse" gradientTransform="translate(19.928 16.8234) rotate(89.2952) scale(7.51238 12.5439)">
<stop offset="0.262" stop-color="#FFD3A6"/>
<stop offset="0.304" stop-color="#FFCF97"/>
<stop offset="0.384" stop-color="#FFC471"/>
<stop offset="0.494" stop-color="#FFB334"/>
<stop offset="0.578" stop-color="#FFA500"/>
<stop offset="0.667" stop-color="#FF8702"/>
<stop offset="0.817" stop-color="#FF5B05"/>
<stop offset="0.932" stop-color="#FF3F06"/>
<stop offset="1" stop-color="#FF3507"/>
</radialGradient>
</defs>
</svg>
