<svg width="62" height="12" viewBox="0 0 62 12" fill="none" xmlns="http://www.w3.org/2000/svg">
<path d="M8.51074 6.04395V9.6875C8.3877 9.86979 8.19173 10.0749 7.92285 10.3027C7.65397 10.526 7.28255 10.722 6.80859 10.8906C6.33919 11.0547 5.73307 11.1367 4.99023 11.1367C4.38411 11.1367 3.82585 11.0319 3.31543 10.8223C2.80957 10.6081 2.36979 10.2982 1.99609 9.89258C1.62695 9.48242 1.33984 8.98568 1.13477 8.40234C0.934245 7.81445 0.833984 7.14909 0.833984 6.40625V5.63379C0.833984 4.89095 0.920573 4.22786 1.09375 3.64453C1.27148 3.0612 1.53125 2.56673 1.87305 2.16113C2.21484 1.75098 2.63411 1.44108 3.13086 1.23145C3.6276 1.01725 4.19727 0.910156 4.83984 0.910156C5.60091 0.910156 6.23665 1.04232 6.74707 1.30664C7.26204 1.56641 7.66309 1.92643 7.9502 2.38672C8.24186 2.84701 8.42871 3.37109 8.51074 3.95898H7.19141C7.13216 3.59896 7.01367 3.27083 6.83594 2.97461C6.66276 2.67839 6.41439 2.44141 6.09082 2.26367C5.76725 2.08138 5.35026 1.99023 4.83984 1.99023C4.37956 1.99023 3.98079 2.07454 3.64355 2.24316C3.30632 2.41178 3.02832 2.65332 2.80957 2.96777C2.59082 3.28223 2.42676 3.66276 2.31738 4.10938C2.21257 4.55599 2.16016 5.05957 2.16016 5.62012V6.40625C2.16016 6.98047 2.22624 7.49316 2.3584 7.94434C2.49512 8.39551 2.6888 8.7806 2.93945 9.09961C3.1901 9.41406 3.48861 9.65332 3.83496 9.81738C4.18587 9.98145 4.57324 10.0635 4.99707 10.0635C5.46647 10.0635 5.84701 10.0247 6.13867 9.94727C6.43034 9.86523 6.6582 9.76953 6.82227 9.66016C6.98633 9.54622 7.11165 9.43913 7.19824 9.33887V7.11035H4.89453V6.04395H8.51074ZM13.5762 11.1367C13.0612 11.1367 12.5941 11.0501 12.1748 10.877C11.7601 10.6992 11.4023 10.4508 11.1016 10.1318C10.8053 9.81283 10.5775 9.43457 10.418 8.99707C10.2585 8.55957 10.1787 8.08105 10.1787 7.56152V7.27441C10.1787 6.67285 10.2676 6.13737 10.4453 5.66797C10.623 5.19401 10.8646 4.79297 11.1699 4.46484C11.4753 4.13672 11.8216 3.88835 12.209 3.71973C12.5964 3.55111 12.9974 3.4668 13.4121 3.4668C13.9408 3.4668 14.3965 3.55794 14.7793 3.74023C15.1667 3.92253 15.4834 4.17773 15.7295 4.50586C15.9756 4.82943 16.1579 5.21224 16.2764 5.6543C16.3949 6.0918 16.4541 6.57031 16.4541 7.08984V7.65723H10.9307V6.625H15.1895V6.5293C15.1712 6.20117 15.1029 5.88216 14.9844 5.57227C14.8704 5.26237 14.6882 5.00716 14.4375 4.80664C14.1868 4.60612 13.8451 4.50586 13.4121 4.50586C13.125 4.50586 12.8607 4.56738 12.6191 4.69043C12.3776 4.80892 12.1702 4.98665 11.9971 5.22363C11.8239 5.46061 11.6895 5.75 11.5938 6.0918C11.498 6.43359 11.4502 6.8278 11.4502 7.27441V7.56152C11.4502 7.91243 11.498 8.24284 11.5938 8.55273C11.694 8.85807 11.8376 9.12695 12.0244 9.35938C12.2158 9.5918 12.446 9.77409 12.7148 9.90625C12.9883 10.0384 13.2982 10.1045 13.6445 10.1045C14.0911 10.1045 14.4694 10.0133 14.7793 9.83105C15.0892 9.64876 15.3604 9.40495 15.5928 9.09961L16.3584 9.70801C16.1989 9.94954 15.9961 10.1797 15.75 10.3984C15.5039 10.6172 15.2008 10.7949 14.8408 10.9316C14.4854 11.0684 14.0638 11.1367 13.5762 11.1367ZM21.0273 3.60352V4.57422H17.0283V3.60352H21.0273ZM18.3818 1.80566H19.6465V9.16797C19.6465 9.41862 19.6852 9.60775 19.7627 9.73535C19.8402 9.86296 19.9404 9.94727 20.0635 9.98828C20.1865 10.0293 20.3187 10.0498 20.46 10.0498C20.5648 10.0498 20.6742 10.0407 20.7881 10.0225C20.9066 9.99967 20.9954 9.98145 21.0547 9.96777L21.0615 11C20.9613 11.0319 20.8291 11.0615 20.665 11.0889C20.5055 11.1208 20.3118 11.1367 20.084 11.1367C19.7741 11.1367 19.4893 11.0752 19.2295 10.9521C18.9697 10.8291 18.7624 10.624 18.6074 10.3369C18.457 10.0452 18.3818 9.65332 18.3818 9.16113V1.80566ZM30.3447 9.73535V5.92773C30.3447 5.63607 30.2855 5.38314 30.167 5.16895C30.0531 4.9502 29.8799 4.78158 29.6475 4.66309C29.415 4.5446 29.1279 4.48535 28.7861 4.48535C28.4671 4.48535 28.1868 4.54004 27.9453 4.64941C27.7083 4.75879 27.5215 4.90234 27.3848 5.08008C27.2526 5.25781 27.1865 5.44922 27.1865 5.6543H25.9219C25.9219 5.38997 25.9902 5.12793 26.127 4.86816C26.2637 4.6084 26.4596 4.3737 26.7148 4.16406C26.9746 3.94987 27.2845 3.78125 27.6445 3.6582C28.0091 3.5306 28.4147 3.4668 28.8613 3.4668C29.3991 3.4668 29.873 3.55794 30.2832 3.74023C30.6979 3.92253 31.0215 4.19824 31.2539 4.56738C31.4909 4.93197 31.6094 5.38997 31.6094 5.94141V9.38672C31.6094 9.63281 31.6299 9.89486 31.6709 10.1729C31.7165 10.4508 31.7826 10.6901 31.8691 10.8906V11H30.5498C30.486 10.8542 30.4359 10.6605 30.3994 10.4189C30.363 10.1729 30.3447 9.94499 30.3447 9.73535ZM30.5635 6.51562L30.5771 7.4043H29.2988C28.9388 7.4043 28.6175 7.43392 28.335 7.49316C28.0524 7.54785 27.8154 7.63216 27.624 7.74609C27.4326 7.86003 27.2868 8.00358 27.1865 8.17676C27.0863 8.34538 27.0361 8.54362 27.0361 8.77148C27.0361 9.00391 27.0885 9.21582 27.1934 9.40723C27.2982 9.59863 27.4554 9.7513 27.665 9.86523C27.8792 9.97461 28.1413 10.0293 28.4512 10.0293C28.8385 10.0293 29.1803 9.94727 29.4766 9.7832C29.7728 9.61914 30.0075 9.41862 30.1807 9.18164C30.3584 8.94466 30.4541 8.71452 30.4678 8.49121L31.0078 9.09961C30.9759 9.29102 30.8893 9.50293 30.748 9.73535C30.6068 9.96777 30.4176 10.1911 30.1807 10.4053C29.9482 10.6149 29.6702 10.7904 29.3467 10.9316C29.0277 11.0684 28.6676 11.1367 28.2666 11.1367C27.7653 11.1367 27.3255 11.0387 26.9473 10.8428C26.5736 10.6468 26.2819 10.3848 26.0723 10.0566C25.8672 9.72396 25.7646 9.35254 25.7646 8.94238C25.7646 8.5459 25.8421 8.19727 25.9971 7.89648C26.152 7.59115 26.3753 7.33822 26.667 7.1377C26.9587 6.93262 27.3096 6.77767 27.7197 6.67285C28.1299 6.56803 28.5879 6.51562 29.0938 6.51562H30.5635ZM38.4453 0.5V11H37.1738V0.5H38.4453ZM40.1406 7.38379V7.22656C40.1406 6.69336 40.2181 6.19889 40.373 5.74316C40.528 5.28288 40.7513 4.88411 41.043 4.54688C41.3346 4.20508 41.6878 3.94076 42.1025 3.75391C42.5173 3.5625 42.9821 3.4668 43.4971 3.4668C44.0166 3.4668 44.4837 3.5625 44.8984 3.75391C45.3177 3.94076 45.6732 4.20508 45.9648 4.54688C46.2611 4.88411 46.4867 5.28288 46.6416 5.74316C46.7965 6.19889 46.874 6.69336 46.874 7.22656V7.38379C46.874 7.91699 46.7965 8.41146 46.6416 8.86719C46.4867 9.32292 46.2611 9.72168 45.9648 10.0635C45.6732 10.4007 45.32 10.665 44.9053 10.8564C44.4951 11.0433 44.0303 11.1367 43.5107 11.1367C42.9912 11.1367 42.5241 11.0433 42.1094 10.8564C41.6947 10.665 41.3392 10.4007 41.043 10.0635C40.7513 9.72168 40.528 9.32292 40.373 8.86719C40.2181 8.41146 40.1406 7.91699 40.1406 7.38379ZM41.4053 7.22656V7.38379C41.4053 7.75293 41.4486 8.10156 41.5352 8.42969C41.6217 8.75326 41.7516 9.04036 41.9248 9.29102C42.1025 9.54167 42.3236 9.73991 42.5879 9.88574C42.8522 10.027 43.1598 10.0977 43.5107 10.0977C43.8571 10.0977 44.1602 10.027 44.4199 9.88574C44.6842 9.73991 44.903 9.54167 45.0762 9.29102C45.2493 9.04036 45.3792 8.75326 45.4658 8.42969C45.557 8.10156 45.6025 7.75293 45.6025 7.38379V7.22656C45.6025 6.86198 45.557 6.5179 45.4658 6.19434C45.3792 5.86621 45.2471 5.57682 45.0693 5.32617C44.8962 5.07096 44.6774 4.87044 44.4131 4.72461C44.1533 4.57878 43.848 4.50586 43.4971 4.50586C43.1507 4.50586 42.8454 4.57878 42.5811 4.72461C42.3213 4.87044 42.1025 5.07096 41.9248 5.32617C41.7516 5.57682 41.6217 5.86621 41.5352 6.19434C41.4486 6.5179 41.4053 6.86198 41.4053 7.22656ZM52.8213 9.73535V5.92773C52.8213 5.63607 52.762 5.38314 52.6436 5.16895C52.5296 4.9502 52.3564 4.78158 52.124 4.66309C51.8916 4.5446 51.6045 4.48535 51.2627 4.48535C50.9437 4.48535 50.6634 4.54004 50.4219 4.64941C50.1849 4.75879 49.998 4.90234 49.8613 5.08008C49.7292 5.25781 49.6631 5.44922 49.6631 5.6543H48.3984C48.3984 5.38997 48.4668 5.12793 48.6035 4.86816C48.7402 4.6084 48.9362 4.3737 49.1914 4.16406C49.4512 3.94987 49.7611 3.78125 50.1211 3.6582C50.4857 3.5306 50.8913 3.4668 51.3379 3.4668C51.8757 3.4668 52.3496 3.55794 52.7598 3.74023C53.1745 3.92253 53.498 4.19824 53.7305 4.56738C53.9674 4.93197 54.0859 5.38997 54.0859 5.94141V9.38672C54.0859 9.63281 54.1064 9.89486 54.1475 10.1729C54.193 10.4508 54.2591 10.6901 54.3457 10.8906V11H53.0264C52.9626 10.8542 52.9124 10.6605 52.876 10.4189C52.8395 10.1729 52.8213 9.94499 52.8213 9.73535ZM53.04 6.51562L53.0537 7.4043H51.7754C51.4154 7.4043 51.0941 7.43392 50.8115 7.49316C50.529 7.54785 50.292 7.63216 50.1006 7.74609C49.9092 7.86003 49.7633 8.00358 49.6631 8.17676C49.5628 8.34538 49.5127 8.54362 49.5127 8.77148C49.5127 9.00391 49.5651 9.21582 49.6699 9.40723C49.7747 9.59863 49.932 9.7513 50.1416 9.86523C50.3558 9.97461 50.6178 10.0293 50.9277 10.0293C51.3151 10.0293 51.6569 9.94727 51.9531 9.7832C52.2493 9.61914 52.484 9.41862 52.6572 9.18164C52.835 8.94466 52.9307 8.71452 52.9443 8.49121L53.4844 9.09961C53.4525 9.29102 53.3659 9.50293 53.2246 9.73535C53.0833 9.96777 52.8942 10.1911 52.6572 10.4053C52.4248 10.6149 52.1468 10.7904 51.8232 10.9316C51.5042 11.0684 51.1442 11.1367 50.7432 11.1367C50.2419 11.1367 49.8021 11.0387 49.4238 10.8428C49.0501 10.6468 48.7585 10.3848 48.5488 10.0566C48.3438 9.72396 48.2412 9.35254 48.2412 8.94238C48.2412 8.5459 48.3187 8.19727 48.4736 7.89648C48.6286 7.59115 48.8519 7.33822 49.1436 7.1377C49.4352 6.93262 49.7861 6.77767 50.1963 6.67285C50.6064 6.56803 51.0645 6.51562 51.5703 6.51562H53.04ZM57.3398 5.18262V11H56.0752V3.60352H57.2715L57.3398 5.18262ZM57.0391 7.02148L56.5127 7.00098C56.5173 6.49512 56.5924 6.02799 56.7383 5.59961C56.8841 5.16667 57.0892 4.79069 57.3535 4.47168C57.6178 4.15267 57.9323 3.90658 58.2969 3.7334C58.666 3.55566 59.0739 3.4668 59.5205 3.4668C59.8851 3.4668 60.2132 3.51693 60.5049 3.61719C60.7965 3.71289 61.0449 3.86784 61.25 4.08203C61.4596 4.29622 61.6191 4.57422 61.7285 4.91602C61.8379 5.25326 61.8926 5.66569 61.8926 6.15332V11H60.6211V6.13965C60.6211 5.75228 60.5641 5.44238 60.4502 5.20996C60.3363 4.97298 60.1699 4.80208 59.9512 4.69727C59.7324 4.58789 59.4635 4.5332 59.1445 4.5332C58.8301 4.5332 58.543 4.59928 58.2832 4.73145C58.028 4.86361 57.807 5.0459 57.6201 5.27832C57.4378 5.51074 57.2943 5.77734 57.1895 6.07812C57.0892 6.37435 57.0391 6.6888 57.0391 7.02148Z" fill="black"/>
</svg>
