<svg width="40" height="40" viewBox="0 0 40 40" fill="none" xmlns="http://www.w3.org/2000/svg">
<circle cx="20" cy="20" r="20" fill="#ADEAF1"/>
<g clip-path="url(#clip0_73_179)">
<path d="M10.25 11C9.65326 11 9.08097 11.2371 8.65901 11.659C8.23705 12.081 8 12.6533 8 13.25V16.25H17C17.1989 16.25 17.3897 16.329 17.5303 16.4697C17.671 16.6103 17.75 16.8011 17.75 17C17.75 17.3795 17.87 17.966 18.209 18.437C18.5195 18.869 19.0445 19.25 20 19.25C20.9555 19.25 21.4805 18.869 21.791 18.437C22.13 17.966 22.25 17.3795 22.25 17C22.25 16.8011 22.329 16.6103 22.4697 16.4697C22.6103 16.329 22.8011 16.25 23 16.25H32V13.25C32 12.6533 31.7629 12.081 31.341 11.659C30.919 11.2371 30.3467 11 29.75 11H10.25Z" fill="#FFD468"/>
<path d="M32 17.75H23.6735C23.5659 18.3124 23.3394 18.8453 23.009 19.313C22.4195 20.132 21.4445 20.75 20 20.75C18.5555 20.75 17.5805 20.132 16.991 19.313C16.6607 18.8453 16.4341 18.3124 16.3265 17.75H8V26.75C8 27.3467 8.23705 27.919 8.65901 28.341C9.08097 28.7629 9.65326 29 10.25 29H29.75C30.3467 29 30.919 28.7629 31.341 28.341C31.7629 27.919 32 27.3467 32 26.75V17.75Z" fill="#427CCE"/>
</g>
<defs>
<clipPath id="clip0_73_179">
<rect width="24" height="24" fill="white" transform="translate(8 8)"/>
</clipPath>
</defs>
</svg>
