<svg width="40" height="40" viewBox="0 0 40 40" fill="none" xmlns="http://www.w3.org/2000/svg">
<circle cx="20" cy="20" r="20" fill="#838FF3"/>
<g clip-path="url(#clip0_73_184)">
<path d="M31.5959 21.43H19.5619C18.9171 21.3803 18.2786 21.5866 17.7847 22.0041C17.2908 22.4216 16.9812 23.0169 16.9229 23.661L16.9219 23.67C16.9811 24.3226 17.2969 24.925 17.8 25.3448C18.3031 25.7647 18.9523 25.9676 19.6049 25.909L19.5959 25.91H31.5959C31.6715 25.917 31.7476 25.9088 31.82 25.886C31.8923 25.8631 31.9593 25.8261 32.0172 25.777C32.075 25.7279 32.1225 25.6678 32.1568 25.6001C32.1911 25.5325 32.2115 25.4587 32.2169 25.383V21.959C32.1973 21.8127 32.1253 21.6784 32.0142 21.5811C31.9032 21.4838 31.7606 21.4301 31.6129 21.43H31.5949H31.5959ZM19.5619 25.068C19.2791 25.068 19.0026 24.9841 18.7675 24.827C18.5323 24.6699 18.349 24.4465 18.2408 24.1852C18.1325 23.9239 18.1042 23.6364 18.1594 23.359C18.2146 23.0816 18.3508 22.8268 18.5508 22.6268C18.7507 22.4268 19.0055 22.2907 19.2829 22.2355C19.5603 22.1803 19.8479 22.2086 20.1092 22.3169C20.3705 22.4251 20.5938 22.6084 20.7509 22.8435C20.9081 23.0787 20.9919 23.3552 20.9919 23.638V23.642C20.9919 24.43 20.3529 25.068 19.5659 25.068H19.5619ZM11.2949 8V14.404H12.6629V11.668C12.8009 11.702 12.9609 11.724 13.1249 11.73H13.1289C13.6232 11.7287 14.0969 11.5318 14.4466 11.1824C14.7962 10.8329 14.9933 10.3593 14.9949 9.865C14.9916 9.70265 14.9695 9.54124 14.9289 9.384L14.9319 9.399H22.4239C22.3878 9.55053 22.3671 9.70531 22.3619 9.861V9.865C22.3632 10.3593 22.5601 10.833 22.9096 11.1827C23.259 11.5323 23.7326 11.7294 24.2269 11.731C24.3949 11.725 24.5559 11.703 24.7099 11.665L24.6939 11.668V14.404H26.0949V8H11.2949ZM26.6839 13.626H28.4249C28.2945 13.2471 28.0659 12.9096 27.7626 12.6479C27.4592 12.3861 27.0918 12.2095 26.6979 12.136L26.6839 12.134V13.626Z" fill="#FFD468"/>
<path d="M19.471 20.684H31.409V17.047C31.3579 16.5075 31.0969 16.0097 30.6822 15.6608C30.2675 15.3119 29.7323 15.14 29.192 15.182H29.199H10.239C10.2229 15.1644 10.2008 15.1534 10.177 15.151C10.0455 15.0892 9.93301 14.9934 9.85107 14.8735C9.76913 14.7536 9.72077 14.6139 9.711 14.469V14.467C9.72692 14.2871 9.79742 14.1164 9.91305 13.9777C10.0287 13.8391 10.1839 13.739 10.358 13.691L10.364 13.69V12.105C9.057 12.167 8 14.032 8 16.364V30.136C8.05159 30.6749 8.31251 31.172 8.72669 31.5205C9.14087 31.8691 9.67525 32.0412 10.215 32H10.208H29.168C29.7054 32.0397 30.2371 31.8676 30.6494 31.5207C31.0618 31.1737 31.3222 30.6793 31.375 30.143L31.376 30.135V26.498H19.504C17.577 26.498 16.022 25.192 16.022 23.607C16.022 21.991 17.576 20.685 19.472 20.685L19.471 20.684Z" fill="#7CB8BE"/>
</g>
<defs>
<clipPath id="clip0_73_184">
<rect width="24" height="24" fill="white" transform="translate(8 8)"/>
</clipPath>
</defs>
</svg>
