<svg width="40" height="40" viewBox="0 0 40 40" fill="none" xmlns="http://www.w3.org/2000/svg">
<circle cx="20" cy="20" r="20" fill="#F0F0F0"/>
<path d="M12.4766 12.875H27.4766C27.6518 12.8749 27.8268 12.886 28.0006 12.9083C27.9417 12.4947 27.7997 12.0974 27.583 11.7402C27.3664 11.3831 27.0797 11.0735 26.7402 10.8301C26.4007 10.5868 26.0154 10.4147 25.6076 10.3242C25.1998 10.2338 24.7779 10.2269 24.3673 10.3039L12.0312 12.41H12.0172C11.2428 12.5581 10.5542 12.9962 10.092 13.6348C10.7884 13.1395 11.622 12.8739 12.4766 12.875V12.875ZM27.4766 14H12.4766C11.6812 14.0009 10.9186 14.3172 10.3562 14.8796C9.79378 15.4421 9.47743 16.2046 9.47656 17V26C9.47743 26.7954 9.79378 27.5579 10.3562 28.1204C10.9186 28.6828 11.6812 28.9991 12.4766 29H27.4766C28.2719 28.9991 29.0345 28.6828 29.5969 28.1204C30.1593 27.5579 30.4757 26.7954 30.4766 26V17C30.4757 16.2046 30.1593 15.4421 29.5969 14.8796C29.0345 14.3172 28.2719 14.0009 27.4766 14V14ZM25.25 23C24.9533 23 24.6633 22.912 24.4166 22.7472C24.17 22.5824 23.9777 22.3481 23.8642 22.074C23.7506 21.7999 23.7209 21.4983 23.7788 21.2074C23.8367 20.9164 23.9796 20.6491 24.1893 20.4393C24.3991 20.2296 24.6664 20.0867 24.9574 20.0288C25.2483 19.9709 25.5499 20.0006 25.824 20.1142C26.0981 20.2277 26.3324 20.42 26.4972 20.6666C26.662 20.9133 26.75 21.2033 26.75 21.5C26.75 21.8978 26.592 22.2794 26.3107 22.5607C26.0294 22.842 25.6478 23 25.25 23Z" fill="#427CCE"/>
<path d="M9.5 20.1641V15.5C9.5 14.4842 10.0625 12.7812 12.0148 12.4123C13.6719 12.1016 15.3125 12.1016 15.3125 12.1016C15.3125 12.1016 16.3906 12.8516 15.5 12.8516C14.6094 12.8516 14.6328 14 15.5 14C16.3672 14 15.5 15.1016 15.5 15.1016L12.0078 19.0625L9.5 20.1641Z" fill="#FFD468"/>
</svg>
